G04 #@! TF.GenerationSoftware,KiCad,Pcbnew,10.0.2*
G04 #@! TF.CreationDate,2026-05-15T17:30:49-07:00*
G04 #@! TF.ProjectId,led-indicator,6c65642d-696e-4646-9963-61746f722e6b,rev?*
G04 #@! TF.SameCoordinates,Original*
G04 #@! TF.FileFunction,Legend,Bot*
G04 #@! TF.FilePolarity,Positive*
%FSLAX46Y46*%
G04 Gerber Fmt 4.6, Leading zero omitted, Abs format (unit mm)*
G04 Created by KiCad (PCBNEW 10.0.2) date 2026-05-15 17:30:49*
%MOMM*%
%LPD*%
G01*
G04 APERTURE LIST*
%ADD10C,0.150000*%
%ADD11C,0.120000*%
G04 APERTURE END LIST*
D10*
X128966666Y-88324819D02*
X129299999Y-87848628D01*
X129538094Y-88324819D02*
X129538094Y-87324819D01*
X129538094Y-87324819D02*
X129157142Y-87324819D01*
X129157142Y-87324819D02*
X129061904Y-87372438D01*
X129061904Y-87372438D02*
X129014285Y-87420057D01*
X129014285Y-87420057D02*
X128966666Y-87515295D01*
X128966666Y-87515295D02*
X128966666Y-87658152D01*
X128966666Y-87658152D02*
X129014285Y-87753390D01*
X129014285Y-87753390D02*
X129061904Y-87801009D01*
X129061904Y-87801009D02*
X129157142Y-87848628D01*
X129157142Y-87848628D02*
X129538094Y-87848628D01*
X128014285Y-88324819D02*
X128585713Y-88324819D01*
X128299999Y-88324819D02*
X128299999Y-87324819D01*
X128299999Y-87324819D02*
X128395237Y-87467676D01*
X128395237Y-87467676D02*
X128490475Y-87562914D01*
X128490475Y-87562914D02*
X128585713Y-87610533D01*
X167523809Y-87354819D02*
X167857142Y-86878628D01*
X168095237Y-87354819D02*
X168095237Y-86354819D01*
X168095237Y-86354819D02*
X167714285Y-86354819D01*
X167714285Y-86354819D02*
X167619047Y-86402438D01*
X167619047Y-86402438D02*
X167571428Y-86450057D01*
X167571428Y-86450057D02*
X167523809Y-86545295D01*
X167523809Y-86545295D02*
X167523809Y-86688152D01*
X167523809Y-86688152D02*
X167571428Y-86783390D01*
X167571428Y-86783390D02*
X167619047Y-86831009D01*
X167619047Y-86831009D02*
X167714285Y-86878628D01*
X167714285Y-86878628D02*
X168095237Y-86878628D01*
X167095237Y-86831009D02*
X166761904Y-86831009D01*
X166619047Y-87354819D02*
X167095237Y-87354819D01*
X167095237Y-87354819D02*
X167095237Y-86354819D01*
X167095237Y-86354819D02*
X166619047Y-86354819D01*
X165857142Y-86831009D02*
X166190475Y-86831009D01*
X166190475Y-87354819D02*
X166190475Y-86354819D01*
X166190475Y-86354819D02*
X165714285Y-86354819D01*
X165142856Y-86354819D02*
X165047618Y-86354819D01*
X165047618Y-86354819D02*
X164952380Y-86402438D01*
X164952380Y-86402438D02*
X164904761Y-86450057D01*
X164904761Y-86450057D02*
X164857142Y-86545295D01*
X164857142Y-86545295D02*
X164809523Y-86735771D01*
X164809523Y-86735771D02*
X164809523Y-86973866D01*
X164809523Y-86973866D02*
X164857142Y-87164342D01*
X164857142Y-87164342D02*
X164904761Y-87259580D01*
X164904761Y-87259580D02*
X164952380Y-87307200D01*
X164952380Y-87307200D02*
X165047618Y-87354819D01*
X165047618Y-87354819D02*
X165142856Y-87354819D01*
X165142856Y-87354819D02*
X165238094Y-87307200D01*
X165238094Y-87307200D02*
X165285713Y-87259580D01*
X165285713Y-87259580D02*
X165333332Y-87164342D01*
X165333332Y-87164342D02*
X165380951Y-86973866D01*
X165380951Y-86973866D02*
X165380951Y-86735771D01*
X165380951Y-86735771D02*
X165333332Y-86545295D01*
X165333332Y-86545295D02*
X165285713Y-86450057D01*
X165285713Y-86450057D02*
X165238094Y-86402438D01*
X165238094Y-86402438D02*
X165142856Y-86354819D01*
X163952380Y-86688152D02*
X163952380Y-87354819D01*
X164190475Y-86307200D02*
X164428570Y-87021485D01*
X164428570Y-87021485D02*
X163809523Y-87021485D01*
X134945557Y-92509580D02*
X134993176Y-92557200D01*
X134993176Y-92557200D02*
X135136033Y-92604819D01*
X135136033Y-92604819D02*
X135231271Y-92604819D01*
X135231271Y-92604819D02*
X135374128Y-92557200D01*
X135374128Y-92557200D02*
X135469366Y-92461961D01*
X135469366Y-92461961D02*
X135516985Y-92366723D01*
X135516985Y-92366723D02*
X135564604Y-92176247D01*
X135564604Y-92176247D02*
X135564604Y-92033390D01*
X135564604Y-92033390D02*
X135516985Y-91842914D01*
X135516985Y-91842914D02*
X135469366Y-91747676D01*
X135469366Y-91747676D02*
X135374128Y-91652438D01*
X135374128Y-91652438D02*
X135231271Y-91604819D01*
X135231271Y-91604819D02*
X135136033Y-91604819D01*
X135136033Y-91604819D02*
X134993176Y-91652438D01*
X134993176Y-91652438D02*
X134945557Y-91700057D01*
X133993176Y-92604819D02*
X134564604Y-92604819D01*
X134278890Y-92604819D02*
X134278890Y-91604819D01*
X134278890Y-91604819D02*
X134374128Y-91747676D01*
X134374128Y-91747676D02*
X134469366Y-91842914D01*
X134469366Y-91842914D02*
X134564604Y-91890533D01*
X133659842Y-91604819D02*
X133040795Y-91604819D01*
X133040795Y-91604819D02*
X133374128Y-91985771D01*
X133374128Y-91985771D02*
X133231271Y-91985771D01*
X133231271Y-91985771D02*
X133136033Y-92033390D01*
X133136033Y-92033390D02*
X133088414Y-92081009D01*
X133088414Y-92081009D02*
X133040795Y-92176247D01*
X133040795Y-92176247D02*
X133040795Y-92414342D01*
X133040795Y-92414342D02*
X133088414Y-92509580D01*
X133088414Y-92509580D02*
X133136033Y-92557200D01*
X133136033Y-92557200D02*
X133231271Y-92604819D01*
X133231271Y-92604819D02*
X133516985Y-92604819D01*
X133516985Y-92604819D02*
X133612223Y-92557200D01*
X133612223Y-92557200D02*
X133659842Y-92509580D01*
X134933333Y-104204819D02*
X134933333Y-104919104D01*
X134933333Y-104919104D02*
X134980952Y-105061961D01*
X134980952Y-105061961D02*
X135076190Y-105157200D01*
X135076190Y-105157200D02*
X135219047Y-105204819D01*
X135219047Y-105204819D02*
X135314285Y-105204819D01*
X134504761Y-104300057D02*
X134457142Y-104252438D01*
X134457142Y-104252438D02*
X134361904Y-104204819D01*
X134361904Y-104204819D02*
X134123809Y-104204819D01*
X134123809Y-104204819D02*
X134028571Y-104252438D01*
X134028571Y-104252438D02*
X133980952Y-104300057D01*
X133980952Y-104300057D02*
X133933333Y-104395295D01*
X133933333Y-104395295D02*
X133933333Y-104490533D01*
X133933333Y-104490533D02*
X133980952Y-104633390D01*
X133980952Y-104633390D02*
X134552380Y-105204819D01*
X134552380Y-105204819D02*
X133933333Y-105204819D01*
X160490476Y-104984580D02*
X160538095Y-105032200D01*
X160538095Y-105032200D02*
X160680952Y-105079819D01*
X160680952Y-105079819D02*
X160776190Y-105079819D01*
X160776190Y-105079819D02*
X160919047Y-105032200D01*
X160919047Y-105032200D02*
X161014285Y-104936961D01*
X161014285Y-104936961D02*
X161061904Y-104841723D01*
X161061904Y-104841723D02*
X161109523Y-104651247D01*
X161109523Y-104651247D02*
X161109523Y-104508390D01*
X161109523Y-104508390D02*
X161061904Y-104317914D01*
X161061904Y-104317914D02*
X161014285Y-104222676D01*
X161014285Y-104222676D02*
X160919047Y-104127438D01*
X160919047Y-104127438D02*
X160776190Y-104079819D01*
X160776190Y-104079819D02*
X160680952Y-104079819D01*
X160680952Y-104079819D02*
X160538095Y-104127438D01*
X160538095Y-104127438D02*
X160490476Y-104175057D01*
X160061904Y-105079819D02*
X160061904Y-104079819D01*
X160061904Y-104079819D02*
X159490476Y-105079819D01*
X159490476Y-105079819D02*
X159490476Y-104079819D01*
X158490476Y-105079819D02*
X159061904Y-105079819D01*
X158776190Y-105079819D02*
X158776190Y-104079819D01*
X158776190Y-104079819D02*
X158871428Y-104222676D01*
X158871428Y-104222676D02*
X158966666Y-104317914D01*
X158966666Y-104317914D02*
X159061904Y-104365533D01*
X153871428Y-108739700D02*
X152728571Y-108739700D01*
X153299999Y-109311128D02*
X153299999Y-108168271D01*
X166871428Y-108739700D02*
X165728571Y-108739700D01*
X129723809Y-119154819D02*
X130057142Y-118678628D01*
X130295237Y-119154819D02*
X130295237Y-118154819D01*
X130295237Y-118154819D02*
X129914285Y-118154819D01*
X129914285Y-118154819D02*
X129819047Y-118202438D01*
X129819047Y-118202438D02*
X129771428Y-118250057D01*
X129771428Y-118250057D02*
X129723809Y-118345295D01*
X129723809Y-118345295D02*
X129723809Y-118488152D01*
X129723809Y-118488152D02*
X129771428Y-118583390D01*
X129771428Y-118583390D02*
X129819047Y-118631009D01*
X129819047Y-118631009D02*
X129914285Y-118678628D01*
X129914285Y-118678628D02*
X130295237Y-118678628D01*
X129295237Y-118631009D02*
X128961904Y-118631009D01*
X128819047Y-119154819D02*
X129295237Y-119154819D01*
X129295237Y-119154819D02*
X129295237Y-118154819D01*
X129295237Y-118154819D02*
X128819047Y-118154819D01*
X128057142Y-118631009D02*
X128390475Y-118631009D01*
X128390475Y-119154819D02*
X128390475Y-118154819D01*
X128390475Y-118154819D02*
X127914285Y-118154819D01*
X127342856Y-118154819D02*
X127247618Y-118154819D01*
X127247618Y-118154819D02*
X127152380Y-118202438D01*
X127152380Y-118202438D02*
X127104761Y-118250057D01*
X127104761Y-118250057D02*
X127057142Y-118345295D01*
X127057142Y-118345295D02*
X127009523Y-118535771D01*
X127009523Y-118535771D02*
X127009523Y-118773866D01*
X127009523Y-118773866D02*
X127057142Y-118964342D01*
X127057142Y-118964342D02*
X127104761Y-119059580D01*
X127104761Y-119059580D02*
X127152380Y-119107200D01*
X127152380Y-119107200D02*
X127247618Y-119154819D01*
X127247618Y-119154819D02*
X127342856Y-119154819D01*
X127342856Y-119154819D02*
X127438094Y-119107200D01*
X127438094Y-119107200D02*
X127485713Y-119059580D01*
X127485713Y-119059580D02*
X127533332Y-118964342D01*
X127533332Y-118964342D02*
X127580951Y-118773866D01*
X127580951Y-118773866D02*
X127580951Y-118535771D01*
X127580951Y-118535771D02*
X127533332Y-118345295D01*
X127533332Y-118345295D02*
X127485713Y-118250057D01*
X127485713Y-118250057D02*
X127438094Y-118202438D01*
X127438094Y-118202438D02*
X127342856Y-118154819D01*
X126152380Y-118154819D02*
X126342856Y-118154819D01*
X126342856Y-118154819D02*
X126438094Y-118202438D01*
X126438094Y-118202438D02*
X126485713Y-118250057D01*
X126485713Y-118250057D02*
X126580951Y-118392914D01*
X126580951Y-118392914D02*
X126628570Y-118583390D01*
X126628570Y-118583390D02*
X126628570Y-118964342D01*
X126628570Y-118964342D02*
X126580951Y-119059580D01*
X126580951Y-119059580D02*
X126533332Y-119107200D01*
X126533332Y-119107200D02*
X126438094Y-119154819D01*
X126438094Y-119154819D02*
X126247618Y-119154819D01*
X126247618Y-119154819D02*
X126152380Y-119107200D01*
X126152380Y-119107200D02*
X126104761Y-119059580D01*
X126104761Y-119059580D02*
X126057142Y-118964342D01*
X126057142Y-118964342D02*
X126057142Y-118726247D01*
X126057142Y-118726247D02*
X126104761Y-118631009D01*
X126104761Y-118631009D02*
X126152380Y-118583390D01*
X126152380Y-118583390D02*
X126247618Y-118535771D01*
X126247618Y-118535771D02*
X126438094Y-118535771D01*
X126438094Y-118535771D02*
X126533332Y-118583390D01*
X126533332Y-118583390D02*
X126580951Y-118631009D01*
X126580951Y-118631009D02*
X126628570Y-118726247D01*
X146182200Y-107532143D02*
X146229819Y-107675000D01*
X146229819Y-107675000D02*
X146229819Y-107913095D01*
X146229819Y-107913095D02*
X146182200Y-108008333D01*
X146182200Y-108008333D02*
X146134580Y-108055952D01*
X146134580Y-108055952D02*
X146039342Y-108103571D01*
X146039342Y-108103571D02*
X145944104Y-108103571D01*
X145944104Y-108103571D02*
X145848866Y-108055952D01*
X145848866Y-108055952D02*
X145801247Y-108008333D01*
X145801247Y-108008333D02*
X145753628Y-107913095D01*
X145753628Y-107913095D02*
X145706009Y-107722619D01*
X145706009Y-107722619D02*
X145658390Y-107627381D01*
X145658390Y-107627381D02*
X145610771Y-107579762D01*
X145610771Y-107579762D02*
X145515533Y-107532143D01*
X145515533Y-107532143D02*
X145420295Y-107532143D01*
X145420295Y-107532143D02*
X145325057Y-107579762D01*
X145325057Y-107579762D02*
X145277438Y-107627381D01*
X145277438Y-107627381D02*
X145229819Y-107722619D01*
X145229819Y-107722619D02*
X145229819Y-107960714D01*
X145229819Y-107960714D02*
X145277438Y-108103571D01*
X145229819Y-108817857D02*
X145944104Y-108817857D01*
X145944104Y-108817857D02*
X146086961Y-108770238D01*
X146086961Y-108770238D02*
X146182200Y-108675000D01*
X146182200Y-108675000D02*
X146229819Y-108532143D01*
X146229819Y-108532143D02*
X146229819Y-108436905D01*
X146229819Y-109817857D02*
X146229819Y-109246429D01*
X146229819Y-109532143D02*
X145229819Y-109532143D01*
X145229819Y-109532143D02*
X145372676Y-109436905D01*
X145372676Y-109436905D02*
X145467914Y-109341667D01*
X145467914Y-109341667D02*
X145515533Y-109246429D01*
X148061904Y-91874819D02*
X148061904Y-92684342D01*
X148061904Y-92684342D02*
X148014285Y-92779580D01*
X148014285Y-92779580D02*
X147966666Y-92827200D01*
X147966666Y-92827200D02*
X147871428Y-92874819D01*
X147871428Y-92874819D02*
X147680952Y-92874819D01*
X147680952Y-92874819D02*
X147585714Y-92827200D01*
X147585714Y-92827200D02*
X147538095Y-92779580D01*
X147538095Y-92779580D02*
X147490476Y-92684342D01*
X147490476Y-92684342D02*
X147490476Y-91874819D01*
X146490476Y-92874819D02*
X147061904Y-92874819D01*
X146776190Y-92874819D02*
X146776190Y-91874819D01*
X146776190Y-91874819D02*
X146871428Y-92017676D01*
X146871428Y-92017676D02*
X146966666Y-92112914D01*
X146966666Y-92112914D02*
X147061904Y-92160533D01*
X168123809Y-119154819D02*
X168457142Y-118678628D01*
X168695237Y-119154819D02*
X168695237Y-118154819D01*
X168695237Y-118154819D02*
X168314285Y-118154819D01*
X168314285Y-118154819D02*
X168219047Y-118202438D01*
X168219047Y-118202438D02*
X168171428Y-118250057D01*
X168171428Y-118250057D02*
X168123809Y-118345295D01*
X168123809Y-118345295D02*
X168123809Y-118488152D01*
X168123809Y-118488152D02*
X168171428Y-118583390D01*
X168171428Y-118583390D02*
X168219047Y-118631009D01*
X168219047Y-118631009D02*
X168314285Y-118678628D01*
X168314285Y-118678628D02*
X168695237Y-118678628D01*
X167695237Y-118631009D02*
X167361904Y-118631009D01*
X167219047Y-119154819D02*
X167695237Y-119154819D01*
X167695237Y-119154819D02*
X167695237Y-118154819D01*
X167695237Y-118154819D02*
X167219047Y-118154819D01*
X166457142Y-118631009D02*
X166790475Y-118631009D01*
X166790475Y-119154819D02*
X166790475Y-118154819D01*
X166790475Y-118154819D02*
X166314285Y-118154819D01*
X165742856Y-118154819D02*
X165647618Y-118154819D01*
X165647618Y-118154819D02*
X165552380Y-118202438D01*
X165552380Y-118202438D02*
X165504761Y-118250057D01*
X165504761Y-118250057D02*
X165457142Y-118345295D01*
X165457142Y-118345295D02*
X165409523Y-118535771D01*
X165409523Y-118535771D02*
X165409523Y-118773866D01*
X165409523Y-118773866D02*
X165457142Y-118964342D01*
X165457142Y-118964342D02*
X165504761Y-119059580D01*
X165504761Y-119059580D02*
X165552380Y-119107200D01*
X165552380Y-119107200D02*
X165647618Y-119154819D01*
X165647618Y-119154819D02*
X165742856Y-119154819D01*
X165742856Y-119154819D02*
X165838094Y-119107200D01*
X165838094Y-119107200D02*
X165885713Y-119059580D01*
X165885713Y-119059580D02*
X165933332Y-118964342D01*
X165933332Y-118964342D02*
X165980951Y-118773866D01*
X165980951Y-118773866D02*
X165980951Y-118535771D01*
X165980951Y-118535771D02*
X165933332Y-118345295D01*
X165933332Y-118345295D02*
X165885713Y-118250057D01*
X165885713Y-118250057D02*
X165838094Y-118202438D01*
X165838094Y-118202438D02*
X165742856Y-118154819D01*
X164504761Y-118154819D02*
X164980951Y-118154819D01*
X164980951Y-118154819D02*
X165028570Y-118631009D01*
X165028570Y-118631009D02*
X164980951Y-118583390D01*
X164980951Y-118583390D02*
X164885713Y-118535771D01*
X164885713Y-118535771D02*
X164647618Y-118535771D01*
X164647618Y-118535771D02*
X164552380Y-118583390D01*
X164552380Y-118583390D02*
X164504761Y-118631009D01*
X164504761Y-118631009D02*
X164457142Y-118726247D01*
X164457142Y-118726247D02*
X164457142Y-118964342D01*
X164457142Y-118964342D02*
X164504761Y-119059580D01*
X164504761Y-119059580D02*
X164552380Y-119107200D01*
X164552380Y-119107200D02*
X164647618Y-119154819D01*
X164647618Y-119154819D02*
X164885713Y-119154819D01*
X164885713Y-119154819D02*
X164980951Y-119107200D01*
X164980951Y-119107200D02*
X165028570Y-119059580D01*
G04 #@! TO.C,R1*
D11*
X129037258Y-88777500D02*
X128562742Y-88777500D01*
X129037258Y-89822500D02*
X128562742Y-89822500D01*
G04 #@! TO.C,C13*
X130222700Y-96867000D02*
X130222700Y-97933000D01*
X130262700Y-96632000D02*
X130262700Y-98168000D01*
X130302700Y-96453000D02*
X130302700Y-98347000D01*
X130342700Y-96303000D02*
X130342700Y-98497000D01*
X130382700Y-96172000D02*
X130382700Y-98628000D01*
X130422700Y-96054000D02*
X130422700Y-98746000D01*
X130462700Y-95947000D02*
X130462700Y-98853000D01*
X130502700Y-95848000D02*
X130502700Y-98952000D01*
X130542700Y-95756000D02*
X130542700Y-99044000D01*
X130582700Y-95669000D02*
X130582700Y-99131000D01*
X130622700Y-95587000D02*
X130622700Y-99213000D01*
X130662700Y-95510000D02*
X130662700Y-99290000D01*
X130702700Y-95436000D02*
X130702700Y-99364000D01*
X130742700Y-95366000D02*
X130742700Y-99434000D01*
X130782700Y-95299000D02*
X130782700Y-99501000D01*
X130822700Y-95235000D02*
X130822700Y-99565000D01*
X130862700Y-95173000D02*
X130862700Y-99627000D01*
X130902700Y-95113000D02*
X130902700Y-99687000D01*
X130942700Y-95056000D02*
X130942700Y-99744000D01*
X130982700Y-95000000D02*
X130982700Y-99800000D01*
X131022700Y-94947000D02*
X131022700Y-99853000D01*
X131062700Y-94895000D02*
X131062700Y-99905000D01*
X131102700Y-94845000D02*
X131102700Y-99955000D01*
X131142700Y-94796000D02*
X131142700Y-100004000D01*
X131182700Y-94749000D02*
X131182700Y-100051000D01*
X131222700Y-94704000D02*
X131222700Y-100096000D01*
X131262700Y-94659000D02*
X131262700Y-100141000D01*
X131302700Y-94616000D02*
X131302700Y-100184000D01*
X131342700Y-94574000D02*
X131342700Y-100226000D01*
X131382700Y-94533000D02*
X131382700Y-100267000D01*
X131422700Y-94494000D02*
X131422700Y-100306000D01*
X131462700Y-94455000D02*
X131462700Y-100345000D01*
X131502700Y-94418000D02*
X131502700Y-100382000D01*
X131542700Y-94381000D02*
X131542700Y-96360000D01*
X131542700Y-98440000D02*
X131542700Y-100419000D01*
X131582700Y-94345000D02*
X131582700Y-96360000D01*
X131582700Y-98440000D02*
X131582700Y-100455000D01*
X131622700Y-94311000D02*
X131622700Y-96360000D01*
X131622700Y-98440000D02*
X131622700Y-100489000D01*
X131662700Y-94277000D02*
X131662700Y-96360000D01*
X131662700Y-98440000D02*
X131662700Y-100523000D01*
X131702700Y-94244000D02*
X131702700Y-96360000D01*
X131702700Y-98440000D02*
X131702700Y-100556000D01*
X131742700Y-94212000D02*
X131742700Y-96360000D01*
X131742700Y-98440000D02*
X131742700Y-100588000D01*
X131782700Y-94181000D02*
X131782700Y-96360000D01*
X131782700Y-98440000D02*
X131782700Y-100619000D01*
X131822700Y-94150000D02*
X131822700Y-96360000D01*
X131822700Y-98440000D02*
X131822700Y-100650000D01*
X131862700Y-94120000D02*
X131862700Y-96360000D01*
X131862700Y-98440000D02*
X131862700Y-100680000D01*
X131902700Y-94091000D02*
X131902700Y-96360000D01*
X131902700Y-98440000D02*
X131902700Y-100709000D01*
X131942700Y-94063000D02*
X131942700Y-96360000D01*
X131942700Y-98440000D02*
X131942700Y-100737000D01*
X131982700Y-94035000D02*
X131982700Y-96360000D01*
X131982700Y-98440000D02*
X131982700Y-100765000D01*
X132022700Y-94008000D02*
X132022700Y-96360000D01*
X132022700Y-98440000D02*
X132022700Y-100792000D01*
X132062700Y-93982000D02*
X132062700Y-96360000D01*
X132062700Y-98440000D02*
X132062700Y-100818000D01*
X132102700Y-93957000D02*
X132102700Y-96360000D01*
X132102700Y-98440000D02*
X132102700Y-100843000D01*
X132142700Y-93932000D02*
X132142700Y-96360000D01*
X132142700Y-98440000D02*
X132142700Y-100868000D01*
X132182700Y-93907000D02*
X132182700Y-96360000D01*
X132182700Y-98440000D02*
X132182700Y-100893000D01*
X132222700Y-93884000D02*
X132222700Y-96360000D01*
X132222700Y-98440000D02*
X132222700Y-100916000D01*
X132262700Y-93861000D02*
X132262700Y-96360000D01*
X132262700Y-98440000D02*
X132262700Y-100939000D01*
X132302700Y-93838000D02*
X132302700Y-96360000D01*
X132302700Y-98440000D02*
X132302700Y-100962000D01*
X132342700Y-93816000D02*
X132342700Y-96360000D01*
X132342700Y-98440000D02*
X132342700Y-100984000D01*
X132382700Y-93795000D02*
X132382700Y-96360000D01*
X132382700Y-98440000D02*
X132382700Y-101005000D01*
X132422700Y-93774000D02*
X132422700Y-96360000D01*
X132422700Y-98440000D02*
X132422700Y-101026000D01*
X132462700Y-93754000D02*
X132462700Y-96360000D01*
X132462700Y-98440000D02*
X132462700Y-101046000D01*
X132502700Y-93734000D02*
X132502700Y-96360000D01*
X132502700Y-98440000D02*
X132502700Y-101066000D01*
X132542700Y-93715000D02*
X132542700Y-96360000D01*
X132542700Y-98440000D02*
X132542700Y-101085000D01*
X132582700Y-93696000D02*
X132582700Y-96360000D01*
X132582700Y-98440000D02*
X132582700Y-101104000D01*
X132622700Y-93678000D02*
X132622700Y-96360000D01*
X132622700Y-98440000D02*
X132622700Y-101122000D01*
X132662700Y-93660000D02*
X132662700Y-96360000D01*
X132662700Y-98440000D02*
X132662700Y-101140000D01*
X132702700Y-93643000D02*
X132702700Y-96360000D01*
X132702700Y-98440000D02*
X132702700Y-101157000D01*
X132742700Y-93627000D02*
X132742700Y-96360000D01*
X132742700Y-98440000D02*
X132742700Y-101173000D01*
X132782700Y-93611000D02*
X132782700Y-96360000D01*
X132782700Y-98440000D02*
X132782700Y-101189000D01*
X132822700Y-93595000D02*
X132822700Y-96360000D01*
X132822700Y-98440000D02*
X132822700Y-101205000D01*
X132862700Y-93580000D02*
X132862700Y-96360000D01*
X132862700Y-98440000D02*
X132862700Y-101220000D01*
X132902700Y-93565000D02*
X132902700Y-96360000D01*
X132902700Y-98440000D02*
X132902700Y-101235000D01*
X132942700Y-93551000D02*
X132942700Y-96360000D01*
X132942700Y-98440000D02*
X132942700Y-101249000D01*
X132982700Y-93537000D02*
X132982700Y-96360000D01*
X132982700Y-98440000D02*
X132982700Y-101263000D01*
X133022700Y-93524000D02*
X133022700Y-96360000D01*
X133022700Y-98440000D02*
X133022700Y-101276000D01*
X133062700Y-93511000D02*
X133062700Y-96360000D01*
X133062700Y-98440000D02*
X133062700Y-101289000D01*
X133102700Y-93499000D02*
X133102700Y-96360000D01*
X133102700Y-98440000D02*
X133102700Y-101301000D01*
X133142700Y-93487000D02*
X133142700Y-96360000D01*
X133142700Y-98440000D02*
X133142700Y-101313000D01*
X133182700Y-93475000D02*
X133182700Y-96360000D01*
X133182700Y-98440000D02*
X133182700Y-101325000D01*
X133222700Y-93464000D02*
X133222700Y-96360000D01*
X133222700Y-98440000D02*
X133222700Y-101336000D01*
X133262700Y-93453000D02*
X133262700Y-96360000D01*
X133262700Y-98440000D02*
X133262700Y-101347000D01*
X133302700Y-93443000D02*
X133302700Y-96360000D01*
X133302700Y-98440000D02*
X133302700Y-101357000D01*
X133342700Y-93433000D02*
X133342700Y-96360000D01*
X133342700Y-98440000D02*
X133342700Y-101367000D01*
X133382700Y-93424000D02*
X133382700Y-96360000D01*
X133382700Y-98440000D02*
X133382700Y-101376000D01*
X133422700Y-93415000D02*
X133422700Y-96360000D01*
X133422700Y-98440000D02*
X133422700Y-101385000D01*
X133462700Y-93407000D02*
X133462700Y-96360000D01*
X133462700Y-98440000D02*
X133462700Y-101393000D01*
X133502700Y-93398000D02*
X133502700Y-96360000D01*
X133502700Y-98440000D02*
X133502700Y-101402000D01*
X133542700Y-93391000D02*
X133542700Y-96360000D01*
X133542700Y-98440000D02*
X133542700Y-101409000D01*
X133582700Y-93383000D02*
X133582700Y-96360000D01*
X133582700Y-98440000D02*
X133582700Y-101417000D01*
X133622700Y-93377000D02*
X133622700Y-101423000D01*
X133662700Y-93370000D02*
X133662700Y-101430000D01*
X133702700Y-93364000D02*
X133702700Y-101436000D01*
X133742700Y-93358000D02*
X133742700Y-101442000D01*
X133782700Y-93353000D02*
X133782700Y-101447000D01*
X133822700Y-93348000D02*
X133822700Y-101452000D01*
X133862700Y-93344000D02*
X133862700Y-101456000D01*
X133902700Y-93339000D02*
X133902700Y-101461000D01*
X133942700Y-93336000D02*
X133942700Y-101464000D01*
X133982700Y-93332000D02*
X133982700Y-101468000D01*
X134022700Y-93330000D02*
X134022700Y-101470000D01*
X134062700Y-93327000D02*
X134062700Y-101473000D01*
X134102700Y-93325000D02*
X134102700Y-101475000D01*
X134142700Y-93323000D02*
X134142700Y-101477000D01*
X134182700Y-93322000D02*
X134182700Y-101478000D01*
X134222700Y-93321000D02*
X134222700Y-101479000D01*
X134262700Y-93320000D02*
X134262700Y-101480000D01*
X134302700Y-93320000D02*
X134302700Y-101480000D01*
X138312398Y-94685000D02*
X138312398Y-95485000D01*
X138712398Y-95085000D02*
X137912398Y-95085000D01*
X138422700Y-97400000D02*
G75*
G02*
X130182700Y-97400000I-4120000J0D01*
G01*
X130182700Y-97400000D02*
G75*
G02*
X138422700Y-97400000I4120000J0D01*
G01*
G04 #@! TO.C,J2*
X129550000Y-108100000D02*
X130300000Y-108100000D01*
X130300000Y-108100000D02*
X130300000Y-111050000D01*
X130300000Y-111050000D02*
X134600000Y-111050000D01*
X138700000Y-105550000D02*
X139950000Y-105550000D01*
X138900000Y-108100000D02*
X138900000Y-111050000D01*
X138900000Y-111050000D02*
X134600000Y-111050000D01*
X139650000Y-108100000D02*
X138900000Y-108100000D01*
X139950000Y-105550000D02*
X139950000Y-106800000D01*
X129550000Y-105850000D02*
X131350000Y-105850000D01*
X131350000Y-106600000D01*
X129550000Y-106600000D01*
X129550000Y-105850000D01*
X132850000Y-105850000D02*
X136350000Y-105850000D01*
X136350000Y-106600000D01*
X132850000Y-106600000D01*
X132850000Y-105850000D01*
X137850000Y-105850000D02*
X139650000Y-105850000D01*
X139650000Y-106600000D01*
X137850000Y-106600000D01*
X137850000Y-105850000D01*
X129540000Y-105840000D02*
X139660000Y-105840000D01*
X139660000Y-111810000D01*
X129540000Y-111810000D01*
X129540000Y-105840000D01*
G04 #@! TO.C,CN1*
X154590000Y-105915000D02*
X154590000Y-111335000D01*
X163310000Y-105915000D02*
X154590000Y-105915000D01*
X163310000Y-111335000D02*
X154590000Y-111335000D01*
X165010000Y-107215000D02*
X163310000Y-105915000D01*
X165010000Y-107215000D02*
X165010000Y-110035000D01*
X165010000Y-110035000D02*
X163310000Y-111335000D01*
G04 #@! TO.C,SJ1*
X146575000Y-107975000D02*
X146575000Y-109375000D01*
X147275000Y-110075000D02*
X147875000Y-110075000D01*
X147875000Y-107275000D02*
X147275000Y-107275000D01*
X148575000Y-109375000D02*
X148575000Y-107975000D01*
X146575000Y-107975000D02*
G75*
G02*
X147275000Y-107275000I699999J1D01*
G01*
X147275000Y-110075000D02*
G75*
G02*
X146575000Y-109375000I0J700000D01*
G01*
X147875000Y-107275000D02*
G75*
G02*
X148575000Y-107975000I1J-699999D01*
G01*
X148575000Y-109375000D02*
G75*
G02*
X147875000Y-110075000I-700000J0D01*
G01*
G04 #@! TO.C,U1*
X145240000Y-93265000D02*
X145240000Y-93330000D01*
X145240000Y-102070000D02*
X145240000Y-102135000D01*
X145240000Y-102135000D02*
X149360000Y-102135000D01*
X149360000Y-93265000D02*
X145240000Y-93265000D01*
X149360000Y-93330000D02*
X149360000Y-93265000D01*
X149360000Y-102135000D02*
X149360000Y-102070000D01*
X149900000Y-93330000D02*
X150140000Y-93000000D01*
X149660000Y-93000000D01*
X149900000Y-93330000D01*
G36*
X149900000Y-93330000D02*
G01*
X149660000Y-93000000D01*
X150140000Y-93000000D01*
X149900000Y-93330000D01*
G37*
G04 #@! TD*
M02*
