G04 #@! TF.GenerationSoftware,KiCad,Pcbnew,10.0.2*
G04 #@! TF.CreationDate,2026-05-15T17:30:49-07:00*
G04 #@! TF.ProjectId,led-indicator,6c65642d-696e-4646-9963-61746f722e6b,rev?*
G04 #@! TF.SameCoordinates,Original*
G04 #@! TF.FileFunction,Legend,Top*
G04 #@! TF.FilePolarity,Positive*
%FSLAX46Y46*%
G04 Gerber Fmt 4.6, Leading zero omitted, Abs format (unit mm)*
G04 Created by KiCad (PCBNEW 10.0.2) date 2026-05-15 17:30:49*
%MOMM*%
%LPD*%
G01*
G04 APERTURE LIST*
%ADD10C,0.150000*%
%ADD11C,0.120000*%
G04 APERTURE END LIST*
D10*
X160559580Y-103166666D02*
X160607200Y-103214285D01*
X160607200Y-103214285D02*
X160654819Y-103357142D01*
X160654819Y-103357142D02*
X160654819Y-103452380D01*
X160654819Y-103452380D02*
X160607200Y-103595237D01*
X160607200Y-103595237D02*
X160511961Y-103690475D01*
X160511961Y-103690475D02*
X160416723Y-103738094D01*
X160416723Y-103738094D02*
X160226247Y-103785713D01*
X160226247Y-103785713D02*
X160083390Y-103785713D01*
X160083390Y-103785713D02*
X159892914Y-103738094D01*
X159892914Y-103738094D02*
X159797676Y-103690475D01*
X159797676Y-103690475D02*
X159702438Y-103595237D01*
X159702438Y-103595237D02*
X159654819Y-103452380D01*
X159654819Y-103452380D02*
X159654819Y-103357142D01*
X159654819Y-103357142D02*
X159702438Y-103214285D01*
X159702438Y-103214285D02*
X159750057Y-103166666D01*
X159654819Y-102833332D02*
X159654819Y-102166666D01*
X159654819Y-102166666D02*
X160654819Y-102595237D01*
X165085714Y-111754819D02*
X165085714Y-110754819D01*
X165085714Y-110754819D02*
X165323809Y-110754819D01*
X165323809Y-110754819D02*
X165466666Y-110802438D01*
X165466666Y-110802438D02*
X165561904Y-110897676D01*
X165561904Y-110897676D02*
X165609523Y-110992914D01*
X165609523Y-110992914D02*
X165657142Y-111183390D01*
X165657142Y-111183390D02*
X165657142Y-111326247D01*
X165657142Y-111326247D02*
X165609523Y-111516723D01*
X165609523Y-111516723D02*
X165561904Y-111611961D01*
X165561904Y-111611961D02*
X165466666Y-111707200D01*
X165466666Y-111707200D02*
X165323809Y-111754819D01*
X165323809Y-111754819D02*
X165085714Y-111754819D01*
X166609523Y-111754819D02*
X166038095Y-111754819D01*
X166323809Y-111754819D02*
X166323809Y-110754819D01*
X166323809Y-110754819D02*
X166228571Y-110897676D01*
X166228571Y-110897676D02*
X166133333Y-110992914D01*
X166133333Y-110992914D02*
X166038095Y-111040533D01*
X166990476Y-110850057D02*
X167038095Y-110802438D01*
X167038095Y-110802438D02*
X167133333Y-110754819D01*
X167133333Y-110754819D02*
X167371428Y-110754819D01*
X167371428Y-110754819D02*
X167466666Y-110802438D01*
X167466666Y-110802438D02*
X167514285Y-110850057D01*
X167514285Y-110850057D02*
X167561904Y-110945295D01*
X167561904Y-110945295D02*
X167561904Y-111040533D01*
X167561904Y-111040533D02*
X167514285Y-111183390D01*
X167514285Y-111183390D02*
X166942857Y-111754819D01*
X166942857Y-111754819D02*
X167561904Y-111754819D01*
X147759580Y-103066666D02*
X147807200Y-103114285D01*
X147807200Y-103114285D02*
X147854819Y-103257142D01*
X147854819Y-103257142D02*
X147854819Y-103352380D01*
X147854819Y-103352380D02*
X147807200Y-103495237D01*
X147807200Y-103495237D02*
X147711961Y-103590475D01*
X147711961Y-103590475D02*
X147616723Y-103638094D01*
X147616723Y-103638094D02*
X147426247Y-103685713D01*
X147426247Y-103685713D02*
X147283390Y-103685713D01*
X147283390Y-103685713D02*
X147092914Y-103638094D01*
X147092914Y-103638094D02*
X146997676Y-103590475D01*
X146997676Y-103590475D02*
X146902438Y-103495237D01*
X146902438Y-103495237D02*
X146854819Y-103352380D01*
X146854819Y-103352380D02*
X146854819Y-103257142D01*
X146854819Y-103257142D02*
X146902438Y-103114285D01*
X146902438Y-103114285D02*
X146950057Y-103066666D01*
X146854819Y-102209523D02*
X146854819Y-102399999D01*
X146854819Y-102399999D02*
X146902438Y-102495237D01*
X146902438Y-102495237D02*
X146950057Y-102542856D01*
X146950057Y-102542856D02*
X147092914Y-102638094D01*
X147092914Y-102638094D02*
X147283390Y-102685713D01*
X147283390Y-102685713D02*
X147664342Y-102685713D01*
X147664342Y-102685713D02*
X147759580Y-102638094D01*
X147759580Y-102638094D02*
X147807200Y-102590475D01*
X147807200Y-102590475D02*
X147854819Y-102495237D01*
X147854819Y-102495237D02*
X147854819Y-102304761D01*
X147854819Y-102304761D02*
X147807200Y-102209523D01*
X147807200Y-102209523D02*
X147759580Y-102161904D01*
X147759580Y-102161904D02*
X147664342Y-102114285D01*
X147664342Y-102114285D02*
X147426247Y-102114285D01*
X147426247Y-102114285D02*
X147331009Y-102161904D01*
X147331009Y-102161904D02*
X147283390Y-102209523D01*
X147283390Y-102209523D02*
X147235771Y-102304761D01*
X147235771Y-102304761D02*
X147235771Y-102495237D01*
X147235771Y-102495237D02*
X147283390Y-102590475D01*
X147283390Y-102590475D02*
X147331009Y-102638094D01*
X147331009Y-102638094D02*
X147426247Y-102685713D01*
X135259580Y-103166666D02*
X135307200Y-103214285D01*
X135307200Y-103214285D02*
X135354819Y-103357142D01*
X135354819Y-103357142D02*
X135354819Y-103452380D01*
X135354819Y-103452380D02*
X135307200Y-103595237D01*
X135307200Y-103595237D02*
X135211961Y-103690475D01*
X135211961Y-103690475D02*
X135116723Y-103738094D01*
X135116723Y-103738094D02*
X134926247Y-103785713D01*
X134926247Y-103785713D02*
X134783390Y-103785713D01*
X134783390Y-103785713D02*
X134592914Y-103738094D01*
X134592914Y-103738094D02*
X134497676Y-103690475D01*
X134497676Y-103690475D02*
X134402438Y-103595237D01*
X134402438Y-103595237D02*
X134354819Y-103452380D01*
X134354819Y-103452380D02*
X134354819Y-103357142D01*
X134354819Y-103357142D02*
X134402438Y-103214285D01*
X134402438Y-103214285D02*
X134450057Y-103166666D01*
X134354819Y-102261904D02*
X134354819Y-102738094D01*
X134354819Y-102738094D02*
X134831009Y-102785713D01*
X134831009Y-102785713D02*
X134783390Y-102738094D01*
X134783390Y-102738094D02*
X134735771Y-102642856D01*
X134735771Y-102642856D02*
X134735771Y-102404761D01*
X134735771Y-102404761D02*
X134783390Y-102309523D01*
X134783390Y-102309523D02*
X134831009Y-102261904D01*
X134831009Y-102261904D02*
X134926247Y-102214285D01*
X134926247Y-102214285D02*
X135164342Y-102214285D01*
X135164342Y-102214285D02*
X135259580Y-102261904D01*
X135259580Y-102261904D02*
X135307200Y-102309523D01*
X135307200Y-102309523D02*
X135354819Y-102404761D01*
X135354819Y-102404761D02*
X135354819Y-102642856D01*
X135354819Y-102642856D02*
X135307200Y-102738094D01*
X135307200Y-102738094D02*
X135259580Y-102785713D01*
X152961905Y-99754819D02*
X152961905Y-98754819D01*
X152961905Y-98754819D02*
X153200000Y-98754819D01*
X153200000Y-98754819D02*
X153342857Y-98802438D01*
X153342857Y-98802438D02*
X153438095Y-98897676D01*
X153438095Y-98897676D02*
X153485714Y-98992914D01*
X153485714Y-98992914D02*
X153533333Y-99183390D01*
X153533333Y-99183390D02*
X153533333Y-99326247D01*
X153533333Y-99326247D02*
X153485714Y-99516723D01*
X153485714Y-99516723D02*
X153438095Y-99611961D01*
X153438095Y-99611961D02*
X153342857Y-99707200D01*
X153342857Y-99707200D02*
X153200000Y-99754819D01*
X153200000Y-99754819D02*
X152961905Y-99754819D01*
X153866667Y-98754819D02*
X154533333Y-98754819D01*
X154533333Y-98754819D02*
X154104762Y-99754819D01*
X148029580Y-90866666D02*
X148077200Y-90914285D01*
X148077200Y-90914285D02*
X148124819Y-91057142D01*
X148124819Y-91057142D02*
X148124819Y-91152380D01*
X148124819Y-91152380D02*
X148077200Y-91295237D01*
X148077200Y-91295237D02*
X147981961Y-91390475D01*
X147981961Y-91390475D02*
X147886723Y-91438094D01*
X147886723Y-91438094D02*
X147696247Y-91485713D01*
X147696247Y-91485713D02*
X147553390Y-91485713D01*
X147553390Y-91485713D02*
X147362914Y-91438094D01*
X147362914Y-91438094D02*
X147267676Y-91390475D01*
X147267676Y-91390475D02*
X147172438Y-91295237D01*
X147172438Y-91295237D02*
X147124819Y-91152380D01*
X147124819Y-91152380D02*
X147124819Y-91057142D01*
X147124819Y-91057142D02*
X147172438Y-90914285D01*
X147172438Y-90914285D02*
X147220057Y-90866666D01*
X147124819Y-90533332D02*
X147124819Y-89914285D01*
X147124819Y-89914285D02*
X147505771Y-90247618D01*
X147505771Y-90247618D02*
X147505771Y-90104761D01*
X147505771Y-90104761D02*
X147553390Y-90009523D01*
X147553390Y-90009523D02*
X147601009Y-89961904D01*
X147601009Y-89961904D02*
X147696247Y-89914285D01*
X147696247Y-89914285D02*
X147934342Y-89914285D01*
X147934342Y-89914285D02*
X148029580Y-89961904D01*
X148029580Y-89961904D02*
X148077200Y-90009523D01*
X148077200Y-90009523D02*
X148124819Y-90104761D01*
X148124819Y-90104761D02*
X148124819Y-90390475D01*
X148124819Y-90390475D02*
X148077200Y-90485713D01*
X148077200Y-90485713D02*
X148029580Y-90533332D01*
X160359580Y-90666666D02*
X160407200Y-90714285D01*
X160407200Y-90714285D02*
X160454819Y-90857142D01*
X160454819Y-90857142D02*
X160454819Y-90952380D01*
X160454819Y-90952380D02*
X160407200Y-91095237D01*
X160407200Y-91095237D02*
X160311961Y-91190475D01*
X160311961Y-91190475D02*
X160216723Y-91238094D01*
X160216723Y-91238094D02*
X160026247Y-91285713D01*
X160026247Y-91285713D02*
X159883390Y-91285713D01*
X159883390Y-91285713D02*
X159692914Y-91238094D01*
X159692914Y-91238094D02*
X159597676Y-91190475D01*
X159597676Y-91190475D02*
X159502438Y-91095237D01*
X159502438Y-91095237D02*
X159454819Y-90952380D01*
X159454819Y-90952380D02*
X159454819Y-90857142D01*
X159454819Y-90857142D02*
X159502438Y-90714285D01*
X159502438Y-90714285D02*
X159550057Y-90666666D01*
X159788152Y-89809523D02*
X160454819Y-89809523D01*
X159407200Y-90047618D02*
X160121485Y-90285713D01*
X160121485Y-90285713D02*
X160121485Y-89666666D01*
X160459580Y-115442857D02*
X160507200Y-115490476D01*
X160507200Y-115490476D02*
X160554819Y-115633333D01*
X160554819Y-115633333D02*
X160554819Y-115728571D01*
X160554819Y-115728571D02*
X160507200Y-115871428D01*
X160507200Y-115871428D02*
X160411961Y-115966666D01*
X160411961Y-115966666D02*
X160316723Y-116014285D01*
X160316723Y-116014285D02*
X160126247Y-116061904D01*
X160126247Y-116061904D02*
X159983390Y-116061904D01*
X159983390Y-116061904D02*
X159792914Y-116014285D01*
X159792914Y-116014285D02*
X159697676Y-115966666D01*
X159697676Y-115966666D02*
X159602438Y-115871428D01*
X159602438Y-115871428D02*
X159554819Y-115728571D01*
X159554819Y-115728571D02*
X159554819Y-115633333D01*
X159554819Y-115633333D02*
X159602438Y-115490476D01*
X159602438Y-115490476D02*
X159650057Y-115442857D01*
X160554819Y-114490476D02*
X160554819Y-115061904D01*
X160554819Y-114776190D02*
X159554819Y-114776190D01*
X159554819Y-114776190D02*
X159697676Y-114871428D01*
X159697676Y-114871428D02*
X159792914Y-114966666D01*
X159792914Y-114966666D02*
X159840533Y-115061904D01*
X160554819Y-113538095D02*
X160554819Y-114109523D01*
X160554819Y-113823809D02*
X159554819Y-113823809D01*
X159554819Y-113823809D02*
X159697676Y-113919047D01*
X159697676Y-113919047D02*
X159792914Y-114014285D01*
X159792914Y-114014285D02*
X159840533Y-114109523D01*
X127661905Y-99754819D02*
X127661905Y-98754819D01*
X127661905Y-98754819D02*
X127900000Y-98754819D01*
X127900000Y-98754819D02*
X128042857Y-98802438D01*
X128042857Y-98802438D02*
X128138095Y-98897676D01*
X128138095Y-98897676D02*
X128185714Y-98992914D01*
X128185714Y-98992914D02*
X128233333Y-99183390D01*
X128233333Y-99183390D02*
X128233333Y-99326247D01*
X128233333Y-99326247D02*
X128185714Y-99516723D01*
X128185714Y-99516723D02*
X128138095Y-99611961D01*
X128138095Y-99611961D02*
X128042857Y-99707200D01*
X128042857Y-99707200D02*
X127900000Y-99754819D01*
X127900000Y-99754819D02*
X127661905Y-99754819D01*
X129138095Y-98754819D02*
X128661905Y-98754819D01*
X128661905Y-98754819D02*
X128614286Y-99231009D01*
X128614286Y-99231009D02*
X128661905Y-99183390D01*
X128661905Y-99183390D02*
X128757143Y-99135771D01*
X128757143Y-99135771D02*
X128995238Y-99135771D01*
X128995238Y-99135771D02*
X129090476Y-99183390D01*
X129090476Y-99183390D02*
X129138095Y-99231009D01*
X129138095Y-99231009D02*
X129185714Y-99326247D01*
X129185714Y-99326247D02*
X129185714Y-99564342D01*
X129185714Y-99564342D02*
X129138095Y-99659580D01*
X129138095Y-99659580D02*
X129090476Y-99707200D01*
X129090476Y-99707200D02*
X128995238Y-99754819D01*
X128995238Y-99754819D02*
X128757143Y-99754819D01*
X128757143Y-99754819D02*
X128661905Y-99707200D01*
X128661905Y-99707200D02*
X128614286Y-99659580D01*
X135559580Y-115966666D02*
X135607200Y-116014285D01*
X135607200Y-116014285D02*
X135654819Y-116157142D01*
X135654819Y-116157142D02*
X135654819Y-116252380D01*
X135654819Y-116252380D02*
X135607200Y-116395237D01*
X135607200Y-116395237D02*
X135511961Y-116490475D01*
X135511961Y-116490475D02*
X135416723Y-116538094D01*
X135416723Y-116538094D02*
X135226247Y-116585713D01*
X135226247Y-116585713D02*
X135083390Y-116585713D01*
X135083390Y-116585713D02*
X134892914Y-116538094D01*
X134892914Y-116538094D02*
X134797676Y-116490475D01*
X134797676Y-116490475D02*
X134702438Y-116395237D01*
X134702438Y-116395237D02*
X134654819Y-116252380D01*
X134654819Y-116252380D02*
X134654819Y-116157142D01*
X134654819Y-116157142D02*
X134702438Y-116014285D01*
X134702438Y-116014285D02*
X134750057Y-115966666D01*
X135654819Y-115490475D02*
X135654819Y-115299999D01*
X135654819Y-115299999D02*
X135607200Y-115204761D01*
X135607200Y-115204761D02*
X135559580Y-115157142D01*
X135559580Y-115157142D02*
X135416723Y-115061904D01*
X135416723Y-115061904D02*
X135226247Y-115014285D01*
X135226247Y-115014285D02*
X134845295Y-115014285D01*
X134845295Y-115014285D02*
X134750057Y-115061904D01*
X134750057Y-115061904D02*
X134702438Y-115109523D01*
X134702438Y-115109523D02*
X134654819Y-115204761D01*
X134654819Y-115204761D02*
X134654819Y-115395237D01*
X134654819Y-115395237D02*
X134702438Y-115490475D01*
X134702438Y-115490475D02*
X134750057Y-115538094D01*
X134750057Y-115538094D02*
X134845295Y-115585713D01*
X134845295Y-115585713D02*
X135083390Y-115585713D01*
X135083390Y-115585713D02*
X135178628Y-115538094D01*
X135178628Y-115538094D02*
X135226247Y-115490475D01*
X135226247Y-115490475D02*
X135273866Y-115395237D01*
X135273866Y-115395237D02*
X135273866Y-115204761D01*
X135273866Y-115204761D02*
X135226247Y-115109523D01*
X135226247Y-115109523D02*
X135178628Y-115061904D01*
X135178628Y-115061904D02*
X135083390Y-115014285D01*
X129976190Y-86654819D02*
X129642857Y-86178628D01*
X129404762Y-86654819D02*
X129404762Y-85654819D01*
X129404762Y-85654819D02*
X129785714Y-85654819D01*
X129785714Y-85654819D02*
X129880952Y-85702438D01*
X129880952Y-85702438D02*
X129928571Y-85750057D01*
X129928571Y-85750057D02*
X129976190Y-85845295D01*
X129976190Y-85845295D02*
X129976190Y-85988152D01*
X129976190Y-85988152D02*
X129928571Y-86083390D01*
X129928571Y-86083390D02*
X129880952Y-86131009D01*
X129880952Y-86131009D02*
X129785714Y-86178628D01*
X129785714Y-86178628D02*
X129404762Y-86178628D01*
X130404762Y-86131009D02*
X130738095Y-86131009D01*
X130880952Y-86654819D02*
X130404762Y-86654819D01*
X130404762Y-86654819D02*
X130404762Y-85654819D01*
X130404762Y-85654819D02*
X130880952Y-85654819D01*
X131642857Y-86131009D02*
X131309524Y-86131009D01*
X131309524Y-86654819D02*
X131309524Y-85654819D01*
X131309524Y-85654819D02*
X131785714Y-85654819D01*
X132357143Y-85654819D02*
X132452381Y-85654819D01*
X132452381Y-85654819D02*
X132547619Y-85702438D01*
X132547619Y-85702438D02*
X132595238Y-85750057D01*
X132595238Y-85750057D02*
X132642857Y-85845295D01*
X132642857Y-85845295D02*
X132690476Y-86035771D01*
X132690476Y-86035771D02*
X132690476Y-86273866D01*
X132690476Y-86273866D02*
X132642857Y-86464342D01*
X132642857Y-86464342D02*
X132595238Y-86559580D01*
X132595238Y-86559580D02*
X132547619Y-86607200D01*
X132547619Y-86607200D02*
X132452381Y-86654819D01*
X132452381Y-86654819D02*
X132357143Y-86654819D01*
X132357143Y-86654819D02*
X132261905Y-86607200D01*
X132261905Y-86607200D02*
X132214286Y-86559580D01*
X132214286Y-86559580D02*
X132166667Y-86464342D01*
X132166667Y-86464342D02*
X132119048Y-86273866D01*
X132119048Y-86273866D02*
X132119048Y-86035771D01*
X132119048Y-86035771D02*
X132166667Y-85845295D01*
X132166667Y-85845295D02*
X132214286Y-85750057D01*
X132214286Y-85750057D02*
X132261905Y-85702438D01*
X132261905Y-85702438D02*
X132357143Y-85654819D01*
X133642857Y-86654819D02*
X133071429Y-86654819D01*
X133357143Y-86654819D02*
X133357143Y-85654819D01*
X133357143Y-85654819D02*
X133261905Y-85797676D01*
X133261905Y-85797676D02*
X133166667Y-85892914D01*
X133166667Y-85892914D02*
X133071429Y-85940533D01*
X152485714Y-111754819D02*
X152485714Y-110754819D01*
X152485714Y-110754819D02*
X152723809Y-110754819D01*
X152723809Y-110754819D02*
X152866666Y-110802438D01*
X152866666Y-110802438D02*
X152961904Y-110897676D01*
X152961904Y-110897676D02*
X153009523Y-110992914D01*
X153009523Y-110992914D02*
X153057142Y-111183390D01*
X153057142Y-111183390D02*
X153057142Y-111326247D01*
X153057142Y-111326247D02*
X153009523Y-111516723D01*
X153009523Y-111516723D02*
X152961904Y-111611961D01*
X152961904Y-111611961D02*
X152866666Y-111707200D01*
X152866666Y-111707200D02*
X152723809Y-111754819D01*
X152723809Y-111754819D02*
X152485714Y-111754819D01*
X154009523Y-111754819D02*
X153438095Y-111754819D01*
X153723809Y-111754819D02*
X153723809Y-110754819D01*
X153723809Y-110754819D02*
X153628571Y-110897676D01*
X153628571Y-110897676D02*
X153533333Y-110992914D01*
X153533333Y-110992914D02*
X153438095Y-111040533D01*
X154961904Y-111754819D02*
X154390476Y-111754819D01*
X154676190Y-111754819D02*
X154676190Y-110754819D01*
X154676190Y-110754819D02*
X154580952Y-110897676D01*
X154580952Y-110897676D02*
X154485714Y-110992914D01*
X154485714Y-110992914D02*
X154390476Y-111040533D01*
X133259580Y-93666666D02*
X133307200Y-93714285D01*
X133307200Y-93714285D02*
X133354819Y-93857142D01*
X133354819Y-93857142D02*
X133354819Y-93952380D01*
X133354819Y-93952380D02*
X133307200Y-94095237D01*
X133307200Y-94095237D02*
X133211961Y-94190475D01*
X133211961Y-94190475D02*
X133116723Y-94238094D01*
X133116723Y-94238094D02*
X132926247Y-94285713D01*
X132926247Y-94285713D02*
X132783390Y-94285713D01*
X132783390Y-94285713D02*
X132592914Y-94238094D01*
X132592914Y-94238094D02*
X132497676Y-94190475D01*
X132497676Y-94190475D02*
X132402438Y-94095237D01*
X132402438Y-94095237D02*
X132354819Y-93952380D01*
X132354819Y-93952380D02*
X132354819Y-93857142D01*
X132354819Y-93857142D02*
X132402438Y-93714285D01*
X132402438Y-93714285D02*
X132450057Y-93666666D01*
X133354819Y-92714285D02*
X133354819Y-93285713D01*
X133354819Y-92999999D02*
X132354819Y-92999999D01*
X132354819Y-92999999D02*
X132497676Y-93095237D01*
X132497676Y-93095237D02*
X132592914Y-93190475D01*
X132592914Y-93190475D02*
X132640533Y-93285713D01*
X147859580Y-115742857D02*
X147907200Y-115790476D01*
X147907200Y-115790476D02*
X147954819Y-115933333D01*
X147954819Y-115933333D02*
X147954819Y-116028571D01*
X147954819Y-116028571D02*
X147907200Y-116171428D01*
X147907200Y-116171428D02*
X147811961Y-116266666D01*
X147811961Y-116266666D02*
X147716723Y-116314285D01*
X147716723Y-116314285D02*
X147526247Y-116361904D01*
X147526247Y-116361904D02*
X147383390Y-116361904D01*
X147383390Y-116361904D02*
X147192914Y-116314285D01*
X147192914Y-116314285D02*
X147097676Y-116266666D01*
X147097676Y-116266666D02*
X147002438Y-116171428D01*
X147002438Y-116171428D02*
X146954819Y-116028571D01*
X146954819Y-116028571D02*
X146954819Y-115933333D01*
X146954819Y-115933333D02*
X147002438Y-115790476D01*
X147002438Y-115790476D02*
X147050057Y-115742857D01*
X147954819Y-114790476D02*
X147954819Y-115361904D01*
X147954819Y-115076190D02*
X146954819Y-115076190D01*
X146954819Y-115076190D02*
X147097676Y-115171428D01*
X147097676Y-115171428D02*
X147192914Y-115266666D01*
X147192914Y-115266666D02*
X147240533Y-115361904D01*
X146954819Y-114171428D02*
X146954819Y-114076190D01*
X146954819Y-114076190D02*
X147002438Y-113980952D01*
X147002438Y-113980952D02*
X147050057Y-113933333D01*
X147050057Y-113933333D02*
X147145295Y-113885714D01*
X147145295Y-113885714D02*
X147335771Y-113838095D01*
X147335771Y-113838095D02*
X147573866Y-113838095D01*
X147573866Y-113838095D02*
X147764342Y-113885714D01*
X147764342Y-113885714D02*
X147859580Y-113933333D01*
X147859580Y-113933333D02*
X147907200Y-113980952D01*
X147907200Y-113980952D02*
X147954819Y-114076190D01*
X147954819Y-114076190D02*
X147954819Y-114171428D01*
X147954819Y-114171428D02*
X147907200Y-114266666D01*
X147907200Y-114266666D02*
X147859580Y-114314285D01*
X147859580Y-114314285D02*
X147764342Y-114361904D01*
X147764342Y-114361904D02*
X147573866Y-114409523D01*
X147573866Y-114409523D02*
X147335771Y-114409523D01*
X147335771Y-114409523D02*
X147145295Y-114361904D01*
X147145295Y-114361904D02*
X147050057Y-114314285D01*
X147050057Y-114314285D02*
X147002438Y-114266666D01*
X147002438Y-114266666D02*
X146954819Y-114171428D01*
X165561905Y-87654819D02*
X165561905Y-86654819D01*
X165561905Y-86654819D02*
X165800000Y-86654819D01*
X165800000Y-86654819D02*
X165942857Y-86702438D01*
X165942857Y-86702438D02*
X166038095Y-86797676D01*
X166038095Y-86797676D02*
X166085714Y-86892914D01*
X166085714Y-86892914D02*
X166133333Y-87083390D01*
X166133333Y-87083390D02*
X166133333Y-87226247D01*
X166133333Y-87226247D02*
X166085714Y-87416723D01*
X166085714Y-87416723D02*
X166038095Y-87511961D01*
X166038095Y-87511961D02*
X165942857Y-87607200D01*
X165942857Y-87607200D02*
X165800000Y-87654819D01*
X165800000Y-87654819D02*
X165561905Y-87654819D01*
X166990476Y-86988152D02*
X166990476Y-87654819D01*
X166752381Y-86607200D02*
X166514286Y-87321485D01*
X166514286Y-87321485D02*
X167133333Y-87321485D01*
X140261905Y-99754819D02*
X140261905Y-98754819D01*
X140261905Y-98754819D02*
X140500000Y-98754819D01*
X140500000Y-98754819D02*
X140642857Y-98802438D01*
X140642857Y-98802438D02*
X140738095Y-98897676D01*
X140738095Y-98897676D02*
X140785714Y-98992914D01*
X140785714Y-98992914D02*
X140833333Y-99183390D01*
X140833333Y-99183390D02*
X140833333Y-99326247D01*
X140833333Y-99326247D02*
X140785714Y-99516723D01*
X140785714Y-99516723D02*
X140738095Y-99611961D01*
X140738095Y-99611961D02*
X140642857Y-99707200D01*
X140642857Y-99707200D02*
X140500000Y-99754819D01*
X140500000Y-99754819D02*
X140261905Y-99754819D01*
X141690476Y-98754819D02*
X141500000Y-98754819D01*
X141500000Y-98754819D02*
X141404762Y-98802438D01*
X141404762Y-98802438D02*
X141357143Y-98850057D01*
X141357143Y-98850057D02*
X141261905Y-98992914D01*
X141261905Y-98992914D02*
X141214286Y-99183390D01*
X141214286Y-99183390D02*
X141214286Y-99564342D01*
X141214286Y-99564342D02*
X141261905Y-99659580D01*
X141261905Y-99659580D02*
X141309524Y-99707200D01*
X141309524Y-99707200D02*
X141404762Y-99754819D01*
X141404762Y-99754819D02*
X141595238Y-99754819D01*
X141595238Y-99754819D02*
X141690476Y-99707200D01*
X141690476Y-99707200D02*
X141738095Y-99659580D01*
X141738095Y-99659580D02*
X141785714Y-99564342D01*
X141785714Y-99564342D02*
X141785714Y-99326247D01*
X141785714Y-99326247D02*
X141738095Y-99231009D01*
X141738095Y-99231009D02*
X141690476Y-99183390D01*
X141690476Y-99183390D02*
X141595238Y-99135771D01*
X141595238Y-99135771D02*
X141404762Y-99135771D01*
X141404762Y-99135771D02*
X141309524Y-99183390D01*
X141309524Y-99183390D02*
X141261905Y-99231009D01*
X141261905Y-99231009D02*
X141214286Y-99326247D01*
X139785714Y-111754819D02*
X139785714Y-110754819D01*
X139785714Y-110754819D02*
X140023809Y-110754819D01*
X140023809Y-110754819D02*
X140166666Y-110802438D01*
X140166666Y-110802438D02*
X140261904Y-110897676D01*
X140261904Y-110897676D02*
X140309523Y-110992914D01*
X140309523Y-110992914D02*
X140357142Y-111183390D01*
X140357142Y-111183390D02*
X140357142Y-111326247D01*
X140357142Y-111326247D02*
X140309523Y-111516723D01*
X140309523Y-111516723D02*
X140261904Y-111611961D01*
X140261904Y-111611961D02*
X140166666Y-111707200D01*
X140166666Y-111707200D02*
X140023809Y-111754819D01*
X140023809Y-111754819D02*
X139785714Y-111754819D01*
X141309523Y-111754819D02*
X140738095Y-111754819D01*
X141023809Y-111754819D02*
X141023809Y-110754819D01*
X141023809Y-110754819D02*
X140928571Y-110897676D01*
X140928571Y-110897676D02*
X140833333Y-110992914D01*
X140833333Y-110992914D02*
X140738095Y-111040533D01*
X141928571Y-110754819D02*
X142023809Y-110754819D01*
X142023809Y-110754819D02*
X142119047Y-110802438D01*
X142119047Y-110802438D02*
X142166666Y-110850057D01*
X142166666Y-110850057D02*
X142214285Y-110945295D01*
X142214285Y-110945295D02*
X142261904Y-111135771D01*
X142261904Y-111135771D02*
X142261904Y-111373866D01*
X142261904Y-111373866D02*
X142214285Y-111564342D01*
X142214285Y-111564342D02*
X142166666Y-111659580D01*
X142166666Y-111659580D02*
X142119047Y-111707200D01*
X142119047Y-111707200D02*
X142023809Y-111754819D01*
X142023809Y-111754819D02*
X141928571Y-111754819D01*
X141928571Y-111754819D02*
X141833333Y-111707200D01*
X141833333Y-111707200D02*
X141785714Y-111659580D01*
X141785714Y-111659580D02*
X141738095Y-111564342D01*
X141738095Y-111564342D02*
X141690476Y-111373866D01*
X141690476Y-111373866D02*
X141690476Y-111135771D01*
X141690476Y-111135771D02*
X141738095Y-110945295D01*
X141738095Y-110945295D02*
X141785714Y-110850057D01*
X141785714Y-110850057D02*
X141833333Y-110802438D01*
X141833333Y-110802438D02*
X141928571Y-110754819D01*
X160657142Y-112559580D02*
X160609523Y-112607200D01*
X160609523Y-112607200D02*
X160466666Y-112654819D01*
X160466666Y-112654819D02*
X160371428Y-112654819D01*
X160371428Y-112654819D02*
X160228571Y-112607200D01*
X160228571Y-112607200D02*
X160133333Y-112511961D01*
X160133333Y-112511961D02*
X160085714Y-112416723D01*
X160085714Y-112416723D02*
X160038095Y-112226247D01*
X160038095Y-112226247D02*
X160038095Y-112083390D01*
X160038095Y-112083390D02*
X160085714Y-111892914D01*
X160085714Y-111892914D02*
X160133333Y-111797676D01*
X160133333Y-111797676D02*
X160228571Y-111702438D01*
X160228571Y-111702438D02*
X160371428Y-111654819D01*
X160371428Y-111654819D02*
X160466666Y-111654819D01*
X160466666Y-111654819D02*
X160609523Y-111702438D01*
X160609523Y-111702438D02*
X160657142Y-111750057D01*
X161609523Y-112654819D02*
X161038095Y-112654819D01*
X161323809Y-112654819D02*
X161323809Y-111654819D01*
X161323809Y-111654819D02*
X161228571Y-111797676D01*
X161228571Y-111797676D02*
X161133333Y-111892914D01*
X161133333Y-111892914D02*
X161038095Y-111940533D01*
X161990476Y-111750057D02*
X162038095Y-111702438D01*
X162038095Y-111702438D02*
X162133333Y-111654819D01*
X162133333Y-111654819D02*
X162371428Y-111654819D01*
X162371428Y-111654819D02*
X162466666Y-111702438D01*
X162466666Y-111702438D02*
X162514285Y-111750057D01*
X162514285Y-111750057D02*
X162561904Y-111845295D01*
X162561904Y-111845295D02*
X162561904Y-111940533D01*
X162561904Y-111940533D02*
X162514285Y-112083390D01*
X162514285Y-112083390D02*
X161942857Y-112654819D01*
X161942857Y-112654819D02*
X162561904Y-112654819D01*
X127661905Y-111754819D02*
X127661905Y-110754819D01*
X127661905Y-110754819D02*
X127900000Y-110754819D01*
X127900000Y-110754819D02*
X128042857Y-110802438D01*
X128042857Y-110802438D02*
X128138095Y-110897676D01*
X128138095Y-110897676D02*
X128185714Y-110992914D01*
X128185714Y-110992914D02*
X128233333Y-111183390D01*
X128233333Y-111183390D02*
X128233333Y-111326247D01*
X128233333Y-111326247D02*
X128185714Y-111516723D01*
X128185714Y-111516723D02*
X128138095Y-111611961D01*
X128138095Y-111611961D02*
X128042857Y-111707200D01*
X128042857Y-111707200D02*
X127900000Y-111754819D01*
X127900000Y-111754819D02*
X127661905Y-111754819D01*
X128709524Y-111754819D02*
X128900000Y-111754819D01*
X128900000Y-111754819D02*
X128995238Y-111707200D01*
X128995238Y-111707200D02*
X129042857Y-111659580D01*
X129042857Y-111659580D02*
X129138095Y-111516723D01*
X129138095Y-111516723D02*
X129185714Y-111326247D01*
X129185714Y-111326247D02*
X129185714Y-110945295D01*
X129185714Y-110945295D02*
X129138095Y-110850057D01*
X129138095Y-110850057D02*
X129090476Y-110802438D01*
X129090476Y-110802438D02*
X128995238Y-110754819D01*
X128995238Y-110754819D02*
X128804762Y-110754819D01*
X128804762Y-110754819D02*
X128709524Y-110802438D01*
X128709524Y-110802438D02*
X128661905Y-110850057D01*
X128661905Y-110850057D02*
X128614286Y-110945295D01*
X128614286Y-110945295D02*
X128614286Y-111183390D01*
X128614286Y-111183390D02*
X128661905Y-111278628D01*
X128661905Y-111278628D02*
X128709524Y-111326247D01*
X128709524Y-111326247D02*
X128804762Y-111373866D01*
X128804762Y-111373866D02*
X128995238Y-111373866D01*
X128995238Y-111373866D02*
X129090476Y-111326247D01*
X129090476Y-111326247D02*
X129138095Y-111278628D01*
X129138095Y-111278628D02*
X129185714Y-111183390D01*
X135329580Y-90966666D02*
X135377200Y-91014285D01*
X135377200Y-91014285D02*
X135424819Y-91157142D01*
X135424819Y-91157142D02*
X135424819Y-91252380D01*
X135424819Y-91252380D02*
X135377200Y-91395237D01*
X135377200Y-91395237D02*
X135281961Y-91490475D01*
X135281961Y-91490475D02*
X135186723Y-91538094D01*
X135186723Y-91538094D02*
X134996247Y-91585713D01*
X134996247Y-91585713D02*
X134853390Y-91585713D01*
X134853390Y-91585713D02*
X134662914Y-91538094D01*
X134662914Y-91538094D02*
X134567676Y-91490475D01*
X134567676Y-91490475D02*
X134472438Y-91395237D01*
X134472438Y-91395237D02*
X134424819Y-91252380D01*
X134424819Y-91252380D02*
X134424819Y-91157142D01*
X134424819Y-91157142D02*
X134472438Y-91014285D01*
X134472438Y-91014285D02*
X134520057Y-90966666D01*
X134520057Y-90585713D02*
X134472438Y-90538094D01*
X134472438Y-90538094D02*
X134424819Y-90442856D01*
X134424819Y-90442856D02*
X134424819Y-90204761D01*
X134424819Y-90204761D02*
X134472438Y-90109523D01*
X134472438Y-90109523D02*
X134520057Y-90061904D01*
X134520057Y-90061904D02*
X134615295Y-90014285D01*
X134615295Y-90014285D02*
X134710533Y-90014285D01*
X134710533Y-90014285D02*
X134853390Y-90061904D01*
X134853390Y-90061904D02*
X135424819Y-90633332D01*
X135424819Y-90633332D02*
X135424819Y-90014285D01*
X171354819Y-91923809D02*
X170878628Y-92257142D01*
X171354819Y-92495237D02*
X170354819Y-92495237D01*
X170354819Y-92495237D02*
X170354819Y-92114285D01*
X170354819Y-92114285D02*
X170402438Y-92019047D01*
X170402438Y-92019047D02*
X170450057Y-91971428D01*
X170450057Y-91971428D02*
X170545295Y-91923809D01*
X170545295Y-91923809D02*
X170688152Y-91923809D01*
X170688152Y-91923809D02*
X170783390Y-91971428D01*
X170783390Y-91971428D02*
X170831009Y-92019047D01*
X170831009Y-92019047D02*
X170878628Y-92114285D01*
X170878628Y-92114285D02*
X170878628Y-92495237D01*
X170831009Y-91495237D02*
X170831009Y-91161904D01*
X171354819Y-91019047D02*
X171354819Y-91495237D01*
X171354819Y-91495237D02*
X170354819Y-91495237D01*
X170354819Y-91495237D02*
X170354819Y-91019047D01*
X170831009Y-90257142D02*
X170831009Y-90590475D01*
X171354819Y-90590475D02*
X170354819Y-90590475D01*
X170354819Y-90590475D02*
X170354819Y-90114285D01*
X170354819Y-89542856D02*
X170354819Y-89447618D01*
X170354819Y-89447618D02*
X170402438Y-89352380D01*
X170402438Y-89352380D02*
X170450057Y-89304761D01*
X170450057Y-89304761D02*
X170545295Y-89257142D01*
X170545295Y-89257142D02*
X170735771Y-89209523D01*
X170735771Y-89209523D02*
X170973866Y-89209523D01*
X170973866Y-89209523D02*
X171164342Y-89257142D01*
X171164342Y-89257142D02*
X171259580Y-89304761D01*
X171259580Y-89304761D02*
X171307200Y-89352380D01*
X171307200Y-89352380D02*
X171354819Y-89447618D01*
X171354819Y-89447618D02*
X171354819Y-89542856D01*
X171354819Y-89542856D02*
X171307200Y-89638094D01*
X171307200Y-89638094D02*
X171259580Y-89685713D01*
X171259580Y-89685713D02*
X171164342Y-89733332D01*
X171164342Y-89733332D02*
X170973866Y-89780951D01*
X170973866Y-89780951D02*
X170735771Y-89780951D01*
X170735771Y-89780951D02*
X170545295Y-89733332D01*
X170545295Y-89733332D02*
X170450057Y-89685713D01*
X170450057Y-89685713D02*
X170402438Y-89638094D01*
X170402438Y-89638094D02*
X170354819Y-89542856D01*
X170450057Y-88828570D02*
X170402438Y-88780951D01*
X170402438Y-88780951D02*
X170354819Y-88685713D01*
X170354819Y-88685713D02*
X170354819Y-88447618D01*
X170354819Y-88447618D02*
X170402438Y-88352380D01*
X170402438Y-88352380D02*
X170450057Y-88304761D01*
X170450057Y-88304761D02*
X170545295Y-88257142D01*
X170545295Y-88257142D02*
X170640533Y-88257142D01*
X170640533Y-88257142D02*
X170783390Y-88304761D01*
X170783390Y-88304761D02*
X171354819Y-88876189D01*
X171354819Y-88876189D02*
X171354819Y-88257142D01*
X165561905Y-99754819D02*
X165561905Y-98754819D01*
X165561905Y-98754819D02*
X165800000Y-98754819D01*
X165800000Y-98754819D02*
X165942857Y-98802438D01*
X165942857Y-98802438D02*
X166038095Y-98897676D01*
X166038095Y-98897676D02*
X166085714Y-98992914D01*
X166085714Y-98992914D02*
X166133333Y-99183390D01*
X166133333Y-99183390D02*
X166133333Y-99326247D01*
X166133333Y-99326247D02*
X166085714Y-99516723D01*
X166085714Y-99516723D02*
X166038095Y-99611961D01*
X166038095Y-99611961D02*
X165942857Y-99707200D01*
X165942857Y-99707200D02*
X165800000Y-99754819D01*
X165800000Y-99754819D02*
X165561905Y-99754819D01*
X166704762Y-99183390D02*
X166609524Y-99135771D01*
X166609524Y-99135771D02*
X166561905Y-99088152D01*
X166561905Y-99088152D02*
X166514286Y-98992914D01*
X166514286Y-98992914D02*
X166514286Y-98945295D01*
X166514286Y-98945295D02*
X166561905Y-98850057D01*
X166561905Y-98850057D02*
X166609524Y-98802438D01*
X166609524Y-98802438D02*
X166704762Y-98754819D01*
X166704762Y-98754819D02*
X166895238Y-98754819D01*
X166895238Y-98754819D02*
X166990476Y-98802438D01*
X166990476Y-98802438D02*
X167038095Y-98850057D01*
X167038095Y-98850057D02*
X167085714Y-98945295D01*
X167085714Y-98945295D02*
X167085714Y-98992914D01*
X167085714Y-98992914D02*
X167038095Y-99088152D01*
X167038095Y-99088152D02*
X166990476Y-99135771D01*
X166990476Y-99135771D02*
X166895238Y-99183390D01*
X166895238Y-99183390D02*
X166704762Y-99183390D01*
X166704762Y-99183390D02*
X166609524Y-99231009D01*
X166609524Y-99231009D02*
X166561905Y-99278628D01*
X166561905Y-99278628D02*
X166514286Y-99373866D01*
X166514286Y-99373866D02*
X166514286Y-99564342D01*
X166514286Y-99564342D02*
X166561905Y-99659580D01*
X166561905Y-99659580D02*
X166609524Y-99707200D01*
X166609524Y-99707200D02*
X166704762Y-99754819D01*
X166704762Y-99754819D02*
X166895238Y-99754819D01*
X166895238Y-99754819D02*
X166990476Y-99707200D01*
X166990476Y-99707200D02*
X167038095Y-99659580D01*
X167038095Y-99659580D02*
X167085714Y-99564342D01*
X167085714Y-99564342D02*
X167085714Y-99373866D01*
X167085714Y-99373866D02*
X167038095Y-99278628D01*
X167038095Y-99278628D02*
X166990476Y-99231009D01*
X166990476Y-99231009D02*
X166895238Y-99183390D01*
X140361905Y-87654819D02*
X140361905Y-86654819D01*
X140361905Y-86654819D02*
X140600000Y-86654819D01*
X140600000Y-86654819D02*
X140742857Y-86702438D01*
X140742857Y-86702438D02*
X140838095Y-86797676D01*
X140838095Y-86797676D02*
X140885714Y-86892914D01*
X140885714Y-86892914D02*
X140933333Y-87083390D01*
X140933333Y-87083390D02*
X140933333Y-87226247D01*
X140933333Y-87226247D02*
X140885714Y-87416723D01*
X140885714Y-87416723D02*
X140838095Y-87511961D01*
X140838095Y-87511961D02*
X140742857Y-87607200D01*
X140742857Y-87607200D02*
X140600000Y-87654819D01*
X140600000Y-87654819D02*
X140361905Y-87654819D01*
X141314286Y-86750057D02*
X141361905Y-86702438D01*
X141361905Y-86702438D02*
X141457143Y-86654819D01*
X141457143Y-86654819D02*
X141695238Y-86654819D01*
X141695238Y-86654819D02*
X141790476Y-86702438D01*
X141790476Y-86702438D02*
X141838095Y-86750057D01*
X141838095Y-86750057D02*
X141885714Y-86845295D01*
X141885714Y-86845295D02*
X141885714Y-86940533D01*
X141885714Y-86940533D02*
X141838095Y-87083390D01*
X141838095Y-87083390D02*
X141266667Y-87654819D01*
X141266667Y-87654819D02*
X141885714Y-87654819D01*
X152961905Y-87654819D02*
X152961905Y-86654819D01*
X152961905Y-86654819D02*
X153200000Y-86654819D01*
X153200000Y-86654819D02*
X153342857Y-86702438D01*
X153342857Y-86702438D02*
X153438095Y-86797676D01*
X153438095Y-86797676D02*
X153485714Y-86892914D01*
X153485714Y-86892914D02*
X153533333Y-87083390D01*
X153533333Y-87083390D02*
X153533333Y-87226247D01*
X153533333Y-87226247D02*
X153485714Y-87416723D01*
X153485714Y-87416723D02*
X153438095Y-87511961D01*
X153438095Y-87511961D02*
X153342857Y-87607200D01*
X153342857Y-87607200D02*
X153200000Y-87654819D01*
X153200000Y-87654819D02*
X152961905Y-87654819D01*
X153866667Y-86654819D02*
X154485714Y-86654819D01*
X154485714Y-86654819D02*
X154152381Y-87035771D01*
X154152381Y-87035771D02*
X154295238Y-87035771D01*
X154295238Y-87035771D02*
X154390476Y-87083390D01*
X154390476Y-87083390D02*
X154438095Y-87131009D01*
X154438095Y-87131009D02*
X154485714Y-87226247D01*
X154485714Y-87226247D02*
X154485714Y-87464342D01*
X154485714Y-87464342D02*
X154438095Y-87559580D01*
X154438095Y-87559580D02*
X154390476Y-87607200D01*
X154390476Y-87607200D02*
X154295238Y-87654819D01*
X154295238Y-87654819D02*
X154009524Y-87654819D01*
X154009524Y-87654819D02*
X153914286Y-87607200D01*
X153914286Y-87607200D02*
X153866667Y-87559580D01*
X127661905Y-87754819D02*
X127661905Y-86754819D01*
X127661905Y-86754819D02*
X127900000Y-86754819D01*
X127900000Y-86754819D02*
X128042857Y-86802438D01*
X128042857Y-86802438D02*
X128138095Y-86897676D01*
X128138095Y-86897676D02*
X128185714Y-86992914D01*
X128185714Y-86992914D02*
X128233333Y-87183390D01*
X128233333Y-87183390D02*
X128233333Y-87326247D01*
X128233333Y-87326247D02*
X128185714Y-87516723D01*
X128185714Y-87516723D02*
X128138095Y-87611961D01*
X128138095Y-87611961D02*
X128042857Y-87707200D01*
X128042857Y-87707200D02*
X127900000Y-87754819D01*
X127900000Y-87754819D02*
X127661905Y-87754819D01*
X129185714Y-87754819D02*
X128614286Y-87754819D01*
X128900000Y-87754819D02*
X128900000Y-86754819D01*
X128900000Y-86754819D02*
X128804762Y-86897676D01*
X128804762Y-86897676D02*
X128709524Y-86992914D01*
X128709524Y-86992914D02*
X128614286Y-87040533D01*
X129276190Y-119454819D02*
X128942857Y-118978628D01*
X128704762Y-119454819D02*
X128704762Y-118454819D01*
X128704762Y-118454819D02*
X129085714Y-118454819D01*
X129085714Y-118454819D02*
X129180952Y-118502438D01*
X129180952Y-118502438D02*
X129228571Y-118550057D01*
X129228571Y-118550057D02*
X129276190Y-118645295D01*
X129276190Y-118645295D02*
X129276190Y-118788152D01*
X129276190Y-118788152D02*
X129228571Y-118883390D01*
X129228571Y-118883390D02*
X129180952Y-118931009D01*
X129180952Y-118931009D02*
X129085714Y-118978628D01*
X129085714Y-118978628D02*
X128704762Y-118978628D01*
X129704762Y-118931009D02*
X130038095Y-118931009D01*
X130180952Y-119454819D02*
X129704762Y-119454819D01*
X129704762Y-119454819D02*
X129704762Y-118454819D01*
X129704762Y-118454819D02*
X130180952Y-118454819D01*
X130942857Y-118931009D02*
X130609524Y-118931009D01*
X130609524Y-119454819D02*
X130609524Y-118454819D01*
X130609524Y-118454819D02*
X131085714Y-118454819D01*
X131657143Y-118454819D02*
X131752381Y-118454819D01*
X131752381Y-118454819D02*
X131847619Y-118502438D01*
X131847619Y-118502438D02*
X131895238Y-118550057D01*
X131895238Y-118550057D02*
X131942857Y-118645295D01*
X131942857Y-118645295D02*
X131990476Y-118835771D01*
X131990476Y-118835771D02*
X131990476Y-119073866D01*
X131990476Y-119073866D02*
X131942857Y-119264342D01*
X131942857Y-119264342D02*
X131895238Y-119359580D01*
X131895238Y-119359580D02*
X131847619Y-119407200D01*
X131847619Y-119407200D02*
X131752381Y-119454819D01*
X131752381Y-119454819D02*
X131657143Y-119454819D01*
X131657143Y-119454819D02*
X131561905Y-119407200D01*
X131561905Y-119407200D02*
X131514286Y-119359580D01*
X131514286Y-119359580D02*
X131466667Y-119264342D01*
X131466667Y-119264342D02*
X131419048Y-119073866D01*
X131419048Y-119073866D02*
X131419048Y-118835771D01*
X131419048Y-118835771D02*
X131466667Y-118645295D01*
X131466667Y-118645295D02*
X131514286Y-118550057D01*
X131514286Y-118550057D02*
X131561905Y-118502438D01*
X131561905Y-118502438D02*
X131657143Y-118454819D01*
X132323810Y-118454819D02*
X132942857Y-118454819D01*
X132942857Y-118454819D02*
X132609524Y-118835771D01*
X132609524Y-118835771D02*
X132752381Y-118835771D01*
X132752381Y-118835771D02*
X132847619Y-118883390D01*
X132847619Y-118883390D02*
X132895238Y-118931009D01*
X132895238Y-118931009D02*
X132942857Y-119026247D01*
X132942857Y-119026247D02*
X132942857Y-119264342D01*
X132942857Y-119264342D02*
X132895238Y-119359580D01*
X132895238Y-119359580D02*
X132847619Y-119407200D01*
X132847619Y-119407200D02*
X132752381Y-119454819D01*
X132752381Y-119454819D02*
X132466667Y-119454819D01*
X132466667Y-119454819D02*
X132371429Y-119407200D01*
X132371429Y-119407200D02*
X132323810Y-119359580D01*
X162159580Y-100166666D02*
X162207200Y-100214285D01*
X162207200Y-100214285D02*
X162254819Y-100357142D01*
X162254819Y-100357142D02*
X162254819Y-100452380D01*
X162254819Y-100452380D02*
X162207200Y-100595237D01*
X162207200Y-100595237D02*
X162111961Y-100690475D01*
X162111961Y-100690475D02*
X162016723Y-100738094D01*
X162016723Y-100738094D02*
X161826247Y-100785713D01*
X161826247Y-100785713D02*
X161683390Y-100785713D01*
X161683390Y-100785713D02*
X161492914Y-100738094D01*
X161492914Y-100738094D02*
X161397676Y-100690475D01*
X161397676Y-100690475D02*
X161302438Y-100595237D01*
X161302438Y-100595237D02*
X161254819Y-100452380D01*
X161254819Y-100452380D02*
X161254819Y-100357142D01*
X161254819Y-100357142D02*
X161302438Y-100214285D01*
X161302438Y-100214285D02*
X161350057Y-100166666D01*
X161683390Y-99595237D02*
X161635771Y-99690475D01*
X161635771Y-99690475D02*
X161588152Y-99738094D01*
X161588152Y-99738094D02*
X161492914Y-99785713D01*
X161492914Y-99785713D02*
X161445295Y-99785713D01*
X161445295Y-99785713D02*
X161350057Y-99738094D01*
X161350057Y-99738094D02*
X161302438Y-99690475D01*
X161302438Y-99690475D02*
X161254819Y-99595237D01*
X161254819Y-99595237D02*
X161254819Y-99404761D01*
X161254819Y-99404761D02*
X161302438Y-99309523D01*
X161302438Y-99309523D02*
X161350057Y-99261904D01*
X161350057Y-99261904D02*
X161445295Y-99214285D01*
X161445295Y-99214285D02*
X161492914Y-99214285D01*
X161492914Y-99214285D02*
X161588152Y-99261904D01*
X161588152Y-99261904D02*
X161635771Y-99309523D01*
X161635771Y-99309523D02*
X161683390Y-99404761D01*
X161683390Y-99404761D02*
X161683390Y-99595237D01*
X161683390Y-99595237D02*
X161731009Y-99690475D01*
X161731009Y-99690475D02*
X161778628Y-99738094D01*
X161778628Y-99738094D02*
X161873866Y-99785713D01*
X161873866Y-99785713D02*
X162064342Y-99785713D01*
X162064342Y-99785713D02*
X162159580Y-99738094D01*
X162159580Y-99738094D02*
X162207200Y-99690475D01*
X162207200Y-99690475D02*
X162254819Y-99595237D01*
X162254819Y-99595237D02*
X162254819Y-99404761D01*
X162254819Y-99404761D02*
X162207200Y-99309523D01*
X162207200Y-99309523D02*
X162159580Y-99261904D01*
X162159580Y-99261904D02*
X162064342Y-99214285D01*
X162064342Y-99214285D02*
X161873866Y-99214285D01*
X161873866Y-99214285D02*
X161778628Y-99261904D01*
X161778628Y-99261904D02*
X161731009Y-99309523D01*
X161731009Y-99309523D02*
X161683390Y-99404761D01*
G04 #@! TO.C,C7*
D11*
X158015000Y-103140580D02*
X158015000Y-102859420D01*
X159035000Y-103140580D02*
X159035000Y-102859420D01*
G04 #@! TO.C,D12*
X162800000Y-112500000D02*
X162800000Y-117550000D01*
X163250000Y-112050000D02*
X162800000Y-112500000D01*
X163600000Y-113900000D02*
X163600000Y-115700000D01*
X169000000Y-113900000D02*
X169000000Y-115700000D01*
X169800000Y-112050000D02*
X163250000Y-112050000D01*
X169800000Y-117550000D02*
X162800000Y-117550000D01*
X169800000Y-117550000D02*
X169800000Y-112050000D01*
G04 #@! TO.C,C6*
X145290000Y-103040580D02*
X145290000Y-102759420D01*
X146310000Y-103040580D02*
X146310000Y-102759420D01*
G04 #@! TO.C,C5*
X132590000Y-103140580D02*
X132590000Y-102859420D01*
X133610000Y-103140580D02*
X133610000Y-102859420D01*
G04 #@! TO.C,D7*
X150200000Y-100500000D02*
X150200000Y-105550000D01*
X150650000Y-100050000D02*
X150200000Y-100500000D01*
X151000000Y-101900000D02*
X151000000Y-103700000D01*
X156400000Y-101900000D02*
X156400000Y-103700000D01*
X157200000Y-100050000D02*
X150650000Y-100050000D01*
X157200000Y-105550000D02*
X150200000Y-105550000D01*
X157200000Y-105550000D02*
X157200000Y-100050000D01*
G04 #@! TO.C,C3*
X148590000Y-90840580D02*
X148590000Y-90559420D01*
X149610000Y-90840580D02*
X149610000Y-90559420D01*
G04 #@! TO.C,C4*
X161190000Y-90740580D02*
X161190000Y-90459420D01*
X162210000Y-90740580D02*
X162210000Y-90459420D01*
G04 #@! TO.C,C11*
X157990000Y-115140580D02*
X157990000Y-114859420D01*
X159010000Y-115140580D02*
X159010000Y-114859420D01*
G04 #@! TO.C,D5*
X124900000Y-100500000D02*
X124900000Y-105550000D01*
X125350000Y-100050000D02*
X124900000Y-100500000D01*
X125700000Y-101900000D02*
X125700000Y-103700000D01*
X131100000Y-101900000D02*
X131100000Y-103700000D01*
X131900000Y-100050000D02*
X125350000Y-100050000D01*
X131900000Y-105550000D02*
X124900000Y-105550000D01*
X131900000Y-105550000D02*
X131900000Y-100050000D01*
G04 #@! TO.C,C9*
X132790000Y-115240580D02*
X132790000Y-114959420D01*
X133810000Y-115240580D02*
X133810000Y-114959420D01*
G04 #@! TO.C,D11*
X150200000Y-112500000D02*
X150200000Y-117550000D01*
X150650000Y-112050000D02*
X150200000Y-112500000D01*
X151000000Y-113900000D02*
X151000000Y-115700000D01*
X156400000Y-113900000D02*
X156400000Y-115700000D01*
X157200000Y-112050000D02*
X150650000Y-112050000D01*
X157200000Y-117550000D02*
X150200000Y-117550000D01*
X157200000Y-117550000D02*
X157200000Y-112050000D01*
G04 #@! TO.C,C1*
X132690000Y-90940580D02*
X132690000Y-90659420D01*
X133710000Y-90940580D02*
X133710000Y-90659420D01*
G04 #@! TO.C,C10*
X145290000Y-115140580D02*
X145290000Y-114859420D01*
X146310000Y-115140580D02*
X146310000Y-114859420D01*
G04 #@! TO.C,D4*
X162800000Y-88400000D02*
X162800000Y-93450000D01*
X163250000Y-87950000D02*
X162800000Y-88400000D01*
X163600000Y-89800000D02*
X163600000Y-91600000D01*
X169000000Y-89800000D02*
X169000000Y-91600000D01*
X169800000Y-87950000D02*
X163250000Y-87950000D01*
X169800000Y-93450000D02*
X162800000Y-93450000D01*
X169800000Y-93450000D02*
X169800000Y-87950000D01*
G04 #@! TO.C,D6*
X137500000Y-100500000D02*
X137500000Y-105550000D01*
X137950000Y-100050000D02*
X137500000Y-100500000D01*
X138300000Y-101900000D02*
X138300000Y-103700000D01*
X143700000Y-101900000D02*
X143700000Y-103700000D01*
X144500000Y-100050000D02*
X137950000Y-100050000D01*
X144500000Y-105550000D02*
X137500000Y-105550000D01*
X144500000Y-105550000D02*
X144500000Y-100050000D01*
G04 #@! TO.C,D10*
X137500000Y-112500000D02*
X137500000Y-117550000D01*
X137950000Y-112050000D02*
X137500000Y-112500000D01*
X138300000Y-113900000D02*
X138300000Y-115700000D01*
X143700000Y-113900000D02*
X143700000Y-115700000D01*
X144500000Y-112050000D02*
X137950000Y-112050000D01*
X144500000Y-117550000D02*
X137500000Y-117550000D01*
X144500000Y-117550000D02*
X144500000Y-112050000D01*
G04 #@! TO.C,C12*
X161190000Y-114940580D02*
X161190000Y-114659420D01*
X162210000Y-114940580D02*
X162210000Y-114659420D01*
G04 #@! TO.C,D9*
X124900000Y-112500000D02*
X124900000Y-117550000D01*
X125350000Y-112050000D02*
X124900000Y-112500000D01*
X125700000Y-113900000D02*
X125700000Y-115700000D01*
X131100000Y-113900000D02*
X131100000Y-115700000D01*
X131900000Y-112050000D02*
X125350000Y-112050000D01*
X131900000Y-117550000D02*
X124900000Y-117550000D01*
X131900000Y-117550000D02*
X131900000Y-112050000D01*
G04 #@! TO.C,C2*
X135890000Y-90940580D02*
X135890000Y-90659420D01*
X136910000Y-90940580D02*
X136910000Y-90659420D01*
G04 #@! TO.C,D8*
X162800000Y-100500000D02*
X162800000Y-105550000D01*
X163250000Y-100050000D02*
X162800000Y-100500000D01*
X163600000Y-101900000D02*
X163600000Y-103700000D01*
X169000000Y-101900000D02*
X169000000Y-103700000D01*
X169800000Y-100050000D02*
X163250000Y-100050000D01*
X169800000Y-105550000D02*
X162800000Y-105550000D01*
X169800000Y-105550000D02*
X169800000Y-100050000D01*
G04 #@! TO.C,D2*
X137600000Y-88400000D02*
X137600000Y-93450000D01*
X138050000Y-87950000D02*
X137600000Y-88400000D01*
X138400000Y-89800000D02*
X138400000Y-91600000D01*
X143800000Y-89800000D02*
X143800000Y-91600000D01*
X144600000Y-87950000D02*
X138050000Y-87950000D01*
X144600000Y-93450000D02*
X137600000Y-93450000D01*
X144600000Y-93450000D02*
X144600000Y-87950000D01*
G04 #@! TO.C,D3*
X150200000Y-88400000D02*
X150200000Y-93450000D01*
X150650000Y-87950000D02*
X150200000Y-88400000D01*
X151000000Y-89800000D02*
X151000000Y-91600000D01*
X156400000Y-89800000D02*
X156400000Y-91600000D01*
X157200000Y-87950000D02*
X150650000Y-87950000D01*
X157200000Y-93450000D02*
X150200000Y-93450000D01*
X157200000Y-93450000D02*
X157200000Y-87950000D01*
G04 #@! TO.C,D1*
X124900000Y-88500000D02*
X124900000Y-93550000D01*
X125350000Y-88050000D02*
X124900000Y-88500000D01*
X125700000Y-89900000D02*
X125700000Y-91700000D01*
X131100000Y-89900000D02*
X131100000Y-91700000D01*
X131900000Y-88050000D02*
X125350000Y-88050000D01*
X131900000Y-93550000D02*
X124900000Y-93550000D01*
X131900000Y-93550000D02*
X131900000Y-88050000D01*
G04 #@! TO.C,C8*
X161190000Y-102940580D02*
X161190000Y-102659420D01*
X162210000Y-102940580D02*
X162210000Y-102659420D01*
G04 #@! TD*
M02*
