G04 #@! TF.GenerationSoftware,KiCad,Pcbnew,10.0.2*
G04 #@! TF.CreationDate,2026-05-15T17:30:49-07:00*
G04 #@! TF.ProjectId,led-indicator,6c65642d-696e-4646-9963-61746f722e6b,rev?*
G04 #@! TF.SameCoordinates,Original*
G04 #@! TF.FileFunction,Paste,Top*
G04 #@! TF.FilePolarity,Positive*
%FSLAX46Y46*%
G04 Gerber Fmt 4.6, Leading zero omitted, Abs format (unit mm)*
G04 Created by KiCad (PCBNEW 10.0.2) date 2026-05-15 17:30:49*
%MOMM*%
%LPD*%
G01*
G04 APERTURE LIST*
G04 Aperture macros list*
%AMRoundRect*
0 Rectangle with rounded corners*
0 $1 Rounding radius*
0 $2 $3 $4 $5 $6 $7 $8 $9 X,Y pos of 4 corners*
0 Add a 4 corners polygon primitive as box body*
4,1,4,$2,$3,$4,$5,$6,$7,$8,$9,$2,$3,0*
0 Add four circle primitives for the rounded corners*
1,1,$1+$1,$2,$3*
1,1,$1+$1,$4,$5*
1,1,$1+$1,$6,$7*
1,1,$1+$1,$8,$9*
0 Add four rect primitives between the rounded corners*
20,1,$1+$1,$2,$3,$4,$5,0*
20,1,$1+$1,$4,$5,$6,$7,0*
20,1,$1+$1,$6,$7,$8,$9,0*
20,1,$1+$1,$8,$9,$2,$3,0*%
G04 Aperture macros list end*
%ADD10RoundRect,0.180000X0.295000X-0.270000X0.295000X0.270000X-0.295000X0.270000X-0.295000X-0.270000X0*%
%ADD11RoundRect,0.225000X0.250000X-0.225000X0.250000X0.225000X-0.250000X0.225000X-0.250000X-0.225000X0*%
%ADD12R,1.500000X1.000000*%
G04 APERTURE END LIST*
D10*
G04 #@! TO.C,C7*
X158525000Y-103775000D03*
D11*
X158525000Y-102225000D03*
G04 #@! TD*
D12*
G04 #@! TO.C,D12*
X163850000Y-113200000D03*
X163850000Y-116400000D03*
X168750000Y-116400000D03*
X168750000Y-113200000D03*
G04 #@! TD*
D11*
G04 #@! TO.C,C6*
X145800000Y-103675000D03*
X145800000Y-102125000D03*
G04 #@! TD*
G04 #@! TO.C,C5*
X133100000Y-103775000D03*
X133100000Y-102225000D03*
G04 #@! TD*
D12*
G04 #@! TO.C,D7*
X151250000Y-101200000D03*
X151250000Y-104400000D03*
X156150000Y-104400000D03*
X156150000Y-101200000D03*
G04 #@! TD*
D11*
G04 #@! TO.C,C3*
X149100000Y-91475000D03*
X149100000Y-89925000D03*
G04 #@! TD*
G04 #@! TO.C,C4*
X161700000Y-91375000D03*
X161700000Y-89825000D03*
G04 #@! TD*
G04 #@! TO.C,C11*
X158500000Y-115775000D03*
X158500000Y-114225000D03*
G04 #@! TD*
D12*
G04 #@! TO.C,D5*
X125950000Y-101200000D03*
X125950000Y-104400000D03*
X130850000Y-104400000D03*
X130850000Y-101200000D03*
G04 #@! TD*
D11*
G04 #@! TO.C,C9*
X133300000Y-115875000D03*
X133300000Y-114325000D03*
G04 #@! TD*
D12*
G04 #@! TO.C,D11*
X151250000Y-113200000D03*
X151250000Y-116400000D03*
X156150000Y-116400000D03*
X156150000Y-113200000D03*
G04 #@! TD*
D11*
G04 #@! TO.C,C1*
X133200000Y-91575000D03*
X133200000Y-90025000D03*
G04 #@! TD*
G04 #@! TO.C,C10*
X145800000Y-115775000D03*
X145800000Y-114225000D03*
G04 #@! TD*
D12*
G04 #@! TO.C,D4*
X163850000Y-89100000D03*
X163850000Y-92300000D03*
X168750000Y-92300000D03*
X168750000Y-89100000D03*
G04 #@! TD*
G04 #@! TO.C,D6*
X138550000Y-101200000D03*
X138550000Y-104400000D03*
X143450000Y-104400000D03*
X143450000Y-101200000D03*
G04 #@! TD*
G04 #@! TO.C,D10*
X138550000Y-113200000D03*
X138550000Y-116400000D03*
X143450000Y-116400000D03*
X143450000Y-113200000D03*
G04 #@! TD*
D11*
G04 #@! TO.C,C12*
X161700000Y-115575000D03*
X161700000Y-114025000D03*
G04 #@! TD*
D12*
G04 #@! TO.C,D9*
X125950000Y-113200000D03*
X125950000Y-116400000D03*
X130850000Y-116400000D03*
X130850000Y-113200000D03*
G04 #@! TD*
D11*
G04 #@! TO.C,C2*
X136400000Y-91575000D03*
X136400000Y-90025000D03*
G04 #@! TD*
D12*
G04 #@! TO.C,D8*
X163850000Y-101200000D03*
X163850000Y-104400000D03*
X168750000Y-104400000D03*
X168750000Y-101200000D03*
G04 #@! TD*
G04 #@! TO.C,D2*
X138650000Y-89100000D03*
X138650000Y-92300000D03*
X143550000Y-92300000D03*
X143550000Y-89100000D03*
G04 #@! TD*
G04 #@! TO.C,D3*
X151250000Y-89100000D03*
X151250000Y-92300000D03*
X156150000Y-92300000D03*
X156150000Y-89100000D03*
G04 #@! TD*
G04 #@! TO.C,D1*
X125950000Y-89200000D03*
X125950000Y-92400000D03*
X130850000Y-92400000D03*
X130850000Y-89200000D03*
G04 #@! TD*
D11*
G04 #@! TO.C,C8*
X161700000Y-103575000D03*
X161700000Y-102025000D03*
G04 #@! TD*
M02*
