G04 #@! TF.GenerationSoftware,KiCad,Pcbnew,10.0.2*
G04 #@! TF.CreationDate,2026-05-15T17:30:49-07:00*
G04 #@! TF.ProjectId,led-indicator,6c65642d-696e-4646-9963-61746f722e6b,rev?*
G04 #@! TF.SameCoordinates,Original*
G04 #@! TF.FileFunction,Other,User*
%FSLAX46Y46*%
G04 Gerber Fmt 4.6, Leading zero omitted, Abs format (unit mm)*
G04 Created by KiCad (PCBNEW 10.0.2) date 2026-05-15 17:30:49*
%MOMM*%
%LPD*%
G01*
G04 APERTURE LIST*
%ADD10C,0.050000*%
G04 APERTURE END LIST*
G04 #@! TO.C,C7*
D10*
X157795000Y-101520000D02*
X159255000Y-101520000D01*
X159255000Y-104480000D01*
X157795000Y-104480000D01*
X157795000Y-101520000D01*
G04 #@! TO.C,D12*
X162850000Y-112050000D02*
X162850000Y-117550000D01*
X162850000Y-117550000D02*
X169750000Y-117550000D01*
X169750000Y-112050000D02*
X162850000Y-112050000D01*
X169750000Y-117550000D02*
X169750000Y-112050000D01*
G04 #@! TO.C,C6*
X145070000Y-101420000D02*
X146530000Y-101420000D01*
X146530000Y-104380000D01*
X145070000Y-104380000D01*
X145070000Y-101420000D01*
G04 #@! TO.C,C5*
X132370000Y-101520000D02*
X133830000Y-101520000D01*
X133830000Y-104480000D01*
X132370000Y-104480000D01*
X132370000Y-101520000D01*
G04 #@! TO.C,D7*
X150250000Y-100050000D02*
X150250000Y-105550000D01*
X150250000Y-105550000D02*
X157150000Y-105550000D01*
X157150000Y-100050000D02*
X150250000Y-100050000D01*
X157150000Y-105550000D02*
X157150000Y-100050000D01*
G04 #@! TO.C,C3*
X148370000Y-89220000D02*
X149830000Y-89220000D01*
X149830000Y-92180000D01*
X148370000Y-92180000D01*
X148370000Y-89220000D01*
G04 #@! TO.C,C4*
X160970000Y-89120000D02*
X162430000Y-89120000D01*
X162430000Y-92080000D01*
X160970000Y-92080000D01*
X160970000Y-89120000D01*
G04 #@! TO.C,C11*
X157770000Y-113520000D02*
X159230000Y-113520000D01*
X159230000Y-116480000D01*
X157770000Y-116480000D01*
X157770000Y-113520000D01*
G04 #@! TO.C,D5*
X124950000Y-100050000D02*
X124950000Y-105550000D01*
X124950000Y-105550000D02*
X131850000Y-105550000D01*
X131850000Y-100050000D02*
X124950000Y-100050000D01*
X131850000Y-105550000D02*
X131850000Y-100050000D01*
G04 #@! TO.C,C9*
X132570000Y-113620000D02*
X134030000Y-113620000D01*
X134030000Y-116580000D01*
X132570000Y-116580000D01*
X132570000Y-113620000D01*
G04 #@! TO.C,REF01*
X126750000Y-86700000D02*
G75*
G02*
X125250000Y-86700000I-750000J0D01*
G01*
X125250000Y-86700000D02*
G75*
G02*
X126750000Y-86700000I750000J0D01*
G01*
G04 #@! TO.C,D11*
X150250000Y-112050000D02*
X150250000Y-117550000D01*
X150250000Y-117550000D02*
X157150000Y-117550000D01*
X157150000Y-112050000D02*
X150250000Y-112050000D01*
X157150000Y-117550000D02*
X157150000Y-112050000D01*
G04 #@! TO.C,C1*
X132470000Y-89320000D02*
X133930000Y-89320000D01*
X133930000Y-92280000D01*
X132470000Y-92280000D01*
X132470000Y-89320000D01*
G04 #@! TO.C,C10*
X145070000Y-113520000D02*
X146530000Y-113520000D01*
X146530000Y-116480000D01*
X145070000Y-116480000D01*
X145070000Y-113520000D01*
G04 #@! TO.C,D4*
X162850000Y-87950000D02*
X162850000Y-93450000D01*
X162850000Y-93450000D02*
X169750000Y-93450000D01*
X169750000Y-87950000D02*
X162850000Y-87950000D01*
X169750000Y-93450000D02*
X169750000Y-87950000D01*
G04 #@! TO.C,D6*
X137550000Y-100050000D02*
X137550000Y-105550000D01*
X137550000Y-105550000D02*
X144450000Y-105550000D01*
X144450000Y-100050000D02*
X137550000Y-100050000D01*
X144450000Y-105550000D02*
X144450000Y-100050000D01*
G04 #@! TO.C,D10*
X137550000Y-112050000D02*
X137550000Y-117550000D01*
X137550000Y-117550000D02*
X144450000Y-117550000D01*
X144450000Y-112050000D02*
X137550000Y-112050000D01*
X144450000Y-117550000D02*
X144450000Y-112050000D01*
G04 #@! TO.C,C12*
X160970000Y-113320000D02*
X162430000Y-113320000D01*
X162430000Y-116280000D01*
X160970000Y-116280000D01*
X160970000Y-113320000D01*
G04 #@! TO.C,D9*
X124950000Y-112050000D02*
X124950000Y-117550000D01*
X124950000Y-117550000D02*
X131850000Y-117550000D01*
X131850000Y-112050000D02*
X124950000Y-112050000D01*
X131850000Y-117550000D02*
X131850000Y-112050000D01*
G04 #@! TO.C,C2*
X135670000Y-89320000D02*
X137130000Y-89320000D01*
X137130000Y-92280000D01*
X135670000Y-92280000D01*
X135670000Y-89320000D01*
G04 #@! TO.C,REF02*
X169950000Y-86600000D02*
G75*
G02*
X168450000Y-86600000I-750000J0D01*
G01*
X168450000Y-86600000D02*
G75*
G02*
X169950000Y-86600000I750000J0D01*
G01*
G04 #@! TO.C,D8*
X162850000Y-100050000D02*
X162850000Y-105550000D01*
X162850000Y-105550000D02*
X169750000Y-105550000D01*
X169750000Y-100050000D02*
X162850000Y-100050000D01*
X169750000Y-105550000D02*
X169750000Y-100050000D01*
G04 #@! TO.C,D2*
X137650000Y-87950000D02*
X137650000Y-93450000D01*
X137650000Y-93450000D02*
X144550000Y-93450000D01*
X144550000Y-87950000D02*
X137650000Y-87950000D01*
X144550000Y-93450000D02*
X144550000Y-87950000D01*
G04 #@! TO.C,D3*
X150250000Y-87950000D02*
X150250000Y-93450000D01*
X150250000Y-93450000D02*
X157150000Y-93450000D01*
X157150000Y-87950000D02*
X150250000Y-87950000D01*
X157150000Y-93450000D02*
X157150000Y-87950000D01*
G04 #@! TO.C,D1*
X124950000Y-88050000D02*
X124950000Y-93550000D01*
X124950000Y-93550000D02*
X131850000Y-93550000D01*
X131850000Y-88050000D02*
X124950000Y-88050000D01*
X131850000Y-93550000D02*
X131850000Y-88050000D01*
G04 #@! TO.C,REF03*
X128150000Y-118500000D02*
G75*
G02*
X126650000Y-118500000I-750000J0D01*
G01*
X126650000Y-118500000D02*
G75*
G02*
X128150000Y-118500000I750000J0D01*
G01*
G04 #@! TO.C,C8*
X160970000Y-101320000D02*
X162430000Y-101320000D01*
X162430000Y-104280000D01*
X160970000Y-104280000D01*
X160970000Y-101320000D01*
G04 #@! TD*
M02*
