G04 #@! TF.GenerationSoftware,KiCad,Pcbnew,10.0.2*
G04 #@! TF.CreationDate,2026-05-15T17:30:49-07:00*
G04 #@! TF.ProjectId,led-indicator,6c65642d-696e-4646-9963-61746f722e6b,rev?*
G04 #@! TF.SameCoordinates,Original*
G04 #@! TF.FileFunction,Copper,L2,Bot*
G04 #@! TF.FilePolarity,Positive*
%FSLAX46Y46*%
G04 Gerber Fmt 4.6, Leading zero omitted, Abs format (unit mm)*
G04 Created by KiCad (PCBNEW 10.0.2) date 2026-05-15 17:30:49*
%MOMM*%
%LPD*%
G01*
G04 APERTURE LIST*
G04 Aperture macros list*
%AMRoundRect*
0 Rectangle with rounded corners*
0 $1 Rounding radius*
0 $2 $3 $4 $5 $6 $7 $8 $9 X,Y pos of 4 corners*
0 Add a 4 corners polygon primitive as box body*
4,1,4,$2,$3,$4,$5,$6,$7,$8,$9,$2,$3,0*
0 Add four circle primitives for the rounded corners*
1,1,$1+$1,$2,$3*
1,1,$1+$1,$4,$5*
1,1,$1+$1,$6,$7*
1,1,$1+$1,$8,$9*
0 Add four rect primitives between the rounded corners*
20,1,$1+$1,$2,$3,$4,$5,0*
20,1,$1+$1,$4,$5,$6,$7,0*
20,1,$1+$1,$6,$7,$8,$9,0*
20,1,$1+$1,$8,$9,$2,$3,0*%
%AMFreePoly0*
4,1,23,0.500000,-0.750000,0.000000,-0.750000,0.000000,-0.745722,-0.065263,-0.745722,-0.191342,-0.711940,-0.304381,-0.646677,-0.396677,-0.554381,-0.461940,-0.441342,-0.495722,-0.315263,-0.495722,-0.250000,-0.500000,-0.250000,-0.500000,0.250000,-0.495722,0.250000,-0.495722,0.315263,-0.461940,0.441342,-0.396677,0.554381,-0.304381,0.646677,-0.191342,0.711940,-0.065263,0.745722,0.000000,0.745722,
0.000000,0.750000,0.500000,0.750000,0.500000,-0.750000,0.500000,-0.750000,$1*%
%AMFreePoly1*
4,1,23,0.000000,0.745722,0.065263,0.745722,0.191342,0.711940,0.304381,0.646677,0.396677,0.554381,0.461940,0.441342,0.495722,0.315263,0.495722,0.250000,0.500000,0.250000,0.500000,-0.250000,0.495722,-0.250000,0.495722,-0.315263,0.461940,-0.441342,0.396677,-0.554381,0.304381,-0.646677,0.191342,-0.711940,0.065263,-0.745722,0.000000,-0.745722,0.000000,-0.750000,-0.500000,-0.750000,
-0.500000,0.750000,0.000000,0.750000,0.000000,0.745722,0.000000,0.745722,$1*%
G04 Aperture macros list end*
G04 #@! TA.AperFunction,SMDPad,CuDef*
%ADD10RoundRect,0.200000X0.200000X0.275000X-0.200000X0.275000X-0.200000X-0.275000X0.200000X-0.275000X0*%
G04 #@! TD*
G04 #@! TA.AperFunction,SMDPad,CuDef*
%ADD11C,0.500000*%
G04 #@! TD*
G04 #@! TA.AperFunction,ComponentPad*
%ADD12RoundRect,0.250000X0.550000X0.550000X-0.550000X0.550000X-0.550000X-0.550000X0.550000X-0.550000X0*%
G04 #@! TD*
G04 #@! TA.AperFunction,ComponentPad*
%ADD13C,1.600000*%
G04 #@! TD*
G04 #@! TA.AperFunction,ComponentPad*
%ADD14RoundRect,0.250000X0.600000X0.725000X-0.600000X0.725000X-0.600000X-0.725000X0.600000X-0.725000X0*%
G04 #@! TD*
G04 #@! TA.AperFunction,ComponentPad*
%ADD15O,1.700000X1.950000*%
G04 #@! TD*
G04 #@! TA.AperFunction,ComponentPad*
%ADD16RoundRect,0.760000X1.140000X1.140000X-1.140000X1.140000X-1.140000X-1.140000X1.140000X-1.140000X0*%
G04 #@! TD*
G04 #@! TA.AperFunction,ComponentPad*
%ADD17C,3.800000*%
G04 #@! TD*
G04 #@! TA.AperFunction,SMDPad,CuDef*
%ADD18FreePoly0,270.000000*%
G04 #@! TD*
G04 #@! TA.AperFunction,SMDPad,CuDef*
%ADD19FreePoly1,270.000000*%
G04 #@! TD*
G04 #@! TA.AperFunction,SMDPad,CuDef*
%ADD20RoundRect,0.150000X0.825000X0.150000X-0.825000X0.150000X-0.825000X-0.150000X0.825000X-0.150000X0*%
G04 #@! TD*
G04 #@! TA.AperFunction,ViaPad*
%ADD21C,0.600000*%
G04 #@! TD*
G04 #@! TA.AperFunction,Conductor*
%ADD22C,0.800000*%
G04 #@! TD*
G04 #@! TA.AperFunction,Conductor*
%ADD23C,0.200000*%
G04 #@! TD*
G04 APERTURE END LIST*
D10*
G04 #@! TO.P,R1,1*
G04 #@! TO.N,/DIN_5V*
X129625000Y-89300000D03*
G04 #@! TO.P,R1,2*
G04 #@! TO.N,Net-(R1-Pad2)*
X127975000Y-89300000D03*
G04 #@! TD*
D11*
G04 #@! TO.P,REF04,*
G04 #@! TO.N,*
X170100000Y-87200000D03*
G04 #@! TD*
D12*
G04 #@! TO.P,C13,1*
G04 #@! TO.N,+5V*
X136052700Y-97400000D03*
D13*
G04 #@! TO.P,C13,2*
G04 #@! TO.N,GND*
X132552700Y-97400000D03*
G04 #@! TD*
D14*
G04 #@! TO.P,J2,1,Pin_1_1*
G04 #@! TO.N,Net-(J2-Pin_1)*
X137100000Y-108300000D03*
D15*
G04 #@! TO.P,J2,2,Pin_2_2*
G04 #@! TO.N,GND*
X134600000Y-108300000D03*
G04 #@! TO.P,J2,3,Pin_3_3*
G04 #@! TO.N,/DIN*
X132100000Y-108300000D03*
G04 #@! TD*
D16*
G04 #@! TO.P,CN1,1,+_1*
G04 #@! TO.N,+5V*
X162300000Y-108625000D03*
D17*
G04 #@! TO.P,CN1,2,-_2*
G04 #@! TO.N,GND*
X157300000Y-108625000D03*
G04 #@! TD*
D11*
G04 #@! TO.P,REF06,*
G04 #@! TO.N,*
X124800000Y-118600000D03*
G04 #@! TD*
D18*
G04 #@! TO.P,SJ1,1,A_1*
G04 #@! TO.N,Net-(J2-Pin_1)*
X147575000Y-108025000D03*
D19*
G04 #@! TO.P,SJ1,2,B_2*
G04 #@! TO.N,+5V*
X147575000Y-109325000D03*
G04 #@! TD*
D20*
G04 #@! TO.P,U1,1*
G04 #@! TO.N,GND*
X149775000Y-93890000D03*
G04 #@! TO.P,U1,2*
G04 #@! TO.N,/DIN*
X149775000Y-95160000D03*
G04 #@! TO.P,U1,3*
G04 #@! TO.N,Net-(R1-Pad2)*
X149775000Y-96430000D03*
G04 #@! TO.P,U1,4*
G04 #@! TO.N,+5V*
X149775000Y-97700000D03*
G04 #@! TO.P,U1,5*
X149775000Y-98970000D03*
G04 #@! TO.P,U1,6*
G04 #@! TO.N,unconnected-(U1-Pad6)*
X149775000Y-100240000D03*
G04 #@! TO.P,U1,7,GND_7*
G04 #@! TO.N,GND*
X149775000Y-101510000D03*
G04 #@! TO.P,U1,8*
G04 #@! TO.N,unconnected-(U1-Pad8)*
X144825000Y-101510000D03*
G04 #@! TO.P,U1,9*
G04 #@! TO.N,+5V*
X144825000Y-100240000D03*
G04 #@! TO.P,U1,10*
X144825000Y-98970000D03*
G04 #@! TO.P,U1,11*
G04 #@! TO.N,unconnected-(U1-Pad11)*
X144825000Y-97700000D03*
G04 #@! TO.P,U1,12*
G04 #@! TO.N,+5V*
X144825000Y-96430000D03*
G04 #@! TO.P,U1,13*
X144825000Y-95160000D03*
G04 #@! TO.P,U1,14,VCC_14*
X144825000Y-93890000D03*
G04 #@! TD*
D11*
G04 #@! TO.P,REF05,*
G04 #@! TO.N,*
X170100000Y-118400000D03*
G04 #@! TD*
D21*
G04 #@! TO.N,GND*
X141200000Y-101300000D03*
X128300000Y-101200000D03*
X142800000Y-117800000D03*
X140900000Y-91600000D03*
X158600000Y-92900000D03*
X170600000Y-104700000D03*
X166100000Y-101100000D03*
X131300000Y-114700000D03*
X154400000Y-101000000D03*
X125000000Y-106000000D03*
G04 #@! TO.N,/DIN_5V*
X128902668Y-89379138D03*
G04 #@! TD*
G04 #@! TO.N,+5V*
D22*
X159300000Y-105800000D02*
X162000000Y-108500000D01*
X144825000Y-98970000D02*
X144420000Y-98970000D01*
X154375000Y-105375000D02*
X154600000Y-105600000D01*
X144825000Y-93890000D02*
X144825000Y-95160000D01*
X154375000Y-102800000D02*
X150545000Y-98970000D01*
X149775000Y-98970000D02*
X144825000Y-98970000D01*
X144825000Y-95160000D02*
X144825000Y-96430000D01*
X144420000Y-98970000D02*
X144420000Y-100240000D01*
X150875000Y-109325000D02*
X154600000Y-105600000D01*
X149775000Y-98970000D02*
X150545000Y-98970000D01*
X144055184Y-98970000D02*
X143250000Y-98164816D01*
X154375000Y-102800000D02*
X154375000Y-105375000D01*
X154800000Y-105800000D02*
X159300000Y-105800000D01*
X149775000Y-97700000D02*
X149775000Y-98970000D01*
X143250000Y-97030001D02*
X143850001Y-96430000D01*
X144825000Y-98970000D02*
X144055184Y-98970000D01*
X143850001Y-96430000D02*
X144825000Y-96430000D01*
X143250000Y-98164816D02*
X143250000Y-97030001D01*
X147575000Y-109325000D02*
X150875000Y-109325000D01*
X154600000Y-105600000D02*
X154800000Y-105800000D01*
G04 #@! TO.N,GND*
D23*
X128752700Y-101200000D02*
X128300000Y-101200000D01*
X132552700Y-97400000D02*
X128752700Y-101200000D01*
G04 #@! TO.N,/DIN_5V*
X128902668Y-89379138D02*
X129545862Y-89379138D01*
G04 #@! TO.N,Net-(R1-Pad2)*
X143200000Y-90500000D02*
X129175000Y-90500000D01*
X129175000Y-90500000D02*
X127975000Y-89300000D01*
X149130000Y-96430000D02*
X143200000Y-90500000D01*
G04 #@! TO.N,Net-(J2-Pin_1)*
X137100000Y-108300000D02*
X147300000Y-108300000D01*
G04 #@! TO.N,/DIN*
X126700000Y-88800000D02*
X127200000Y-88300000D01*
X127200000Y-88300000D02*
X141800000Y-88300000D01*
X132100000Y-108300000D02*
X126700000Y-102900000D01*
X126700000Y-102900000D02*
X126700000Y-88800000D01*
X141800000Y-88300000D02*
X148660000Y-95160000D01*
X148660000Y-95160000D02*
X149775000Y-95160000D01*
G04 #@! TD*
G04 #@! TA.AperFunction,Conductor*
G04 #@! TO.N,GND*
G36*
X127279593Y-89689316D02*
G01*
X127292258Y-89712911D01*
X127331202Y-89817329D01*
X127415919Y-89930496D01*
X127417454Y-89932546D01*
X127417457Y-89932548D01*
X127417458Y-89932549D01*
X127532670Y-90018797D01*
X127667511Y-90069089D01*
X127667512Y-90069089D01*
X127667517Y-90069091D01*
X127727127Y-90075500D01*
X128143098Y-90075499D01*
X128201289Y-90094406D01*
X128213102Y-90104495D01*
X128929087Y-90820480D01*
X128929089Y-90820481D01*
X128929090Y-90820482D01*
X128929091Y-90820483D01*
X129020408Y-90873205D01*
X129020406Y-90873205D01*
X129020410Y-90873206D01*
X129020412Y-90873207D01*
X129122273Y-90900500D01*
X129227727Y-90900500D01*
X142993099Y-90900500D01*
X143051290Y-90919407D01*
X143063103Y-90929496D01*
X145224862Y-93091255D01*
X145252639Y-93145772D01*
X145243068Y-93206204D01*
X145199803Y-93249469D01*
X145139371Y-93259040D01*
X145116973Y-93252723D01*
X145029328Y-93216420D01*
X144893995Y-93189500D01*
X144893993Y-93189500D01*
X144756007Y-93189500D01*
X144756004Y-93189500D01*
X144620672Y-93216420D01*
X144620670Y-93216420D01*
X144493190Y-93269224D01*
X144487816Y-93272815D01*
X144432814Y-93289500D01*
X143945725Y-93289500D01*
X143915305Y-93292353D01*
X143915296Y-93292355D01*
X143787116Y-93337207D01*
X143677855Y-93417845D01*
X143677845Y-93417855D01*
X143597207Y-93527116D01*
X143552355Y-93655296D01*
X143552353Y-93655305D01*
X143549500Y-93685725D01*
X143549500Y-94094274D01*
X143552353Y-94124694D01*
X143552355Y-94124703D01*
X143597207Y-94252883D01*
X143677845Y-94362144D01*
X143677847Y-94362146D01*
X143677850Y-94362150D01*
X143677853Y-94362152D01*
X143677855Y-94362154D01*
X143790574Y-94445345D01*
X143826167Y-94495113D01*
X143825709Y-94556296D01*
X143790574Y-94604655D01*
X143677855Y-94687845D01*
X143677845Y-94687855D01*
X143597207Y-94797116D01*
X143552355Y-94925296D01*
X143552353Y-94925305D01*
X143549500Y-94955725D01*
X143549500Y-95364274D01*
X143552353Y-95394694D01*
X143552355Y-95394703D01*
X143597207Y-95522883D01*
X143665409Y-95615294D01*
X143684751Y-95673342D01*
X143666280Y-95731672D01*
X143623640Y-95765546D01*
X143518190Y-95809224D01*
X143403461Y-95885883D01*
X142705883Y-96583461D01*
X142671896Y-96634328D01*
X142629223Y-96698192D01*
X142576420Y-96825671D01*
X142576420Y-96825673D01*
X142549500Y-96961005D01*
X142549500Y-96961008D01*
X142549500Y-98095822D01*
X142549500Y-98233810D01*
X142571204Y-98342924D01*
X142576420Y-98369143D01*
X142576420Y-98369145D01*
X142629223Y-98496624D01*
X142695405Y-98595674D01*
X142705886Y-98611359D01*
X143608641Y-99514114D01*
X143608644Y-99514116D01*
X143675501Y-99558788D01*
X143686377Y-99572585D01*
X143700593Y-99582913D01*
X143704850Y-99596017D01*
X143713381Y-99606838D01*
X143719500Y-99641104D01*
X143719500Y-99687133D01*
X143700593Y-99745324D01*
X143679291Y-99766786D01*
X143677855Y-99767845D01*
X143677845Y-99767855D01*
X143597207Y-99877116D01*
X143552355Y-100005296D01*
X143552353Y-100005305D01*
X143549500Y-100035725D01*
X143549500Y-100444274D01*
X143552353Y-100474694D01*
X143552355Y-100474703D01*
X143597207Y-100602883D01*
X143677845Y-100712144D01*
X143677847Y-100712146D01*
X143677850Y-100712150D01*
X143677853Y-100712152D01*
X143677855Y-100712154D01*
X143790574Y-100795345D01*
X143826167Y-100845113D01*
X143825709Y-100906296D01*
X143790574Y-100954655D01*
X143677855Y-101037845D01*
X143677845Y-101037855D01*
X143597207Y-101147116D01*
X143552355Y-101275296D01*
X143552353Y-101275305D01*
X143549500Y-101305725D01*
X143549500Y-101714274D01*
X143552353Y-101744694D01*
X143552355Y-101744703D01*
X143597207Y-101872883D01*
X143677845Y-101982144D01*
X143677847Y-101982146D01*
X143677850Y-101982150D01*
X143677853Y-101982152D01*
X143677855Y-101982154D01*
X143787116Y-102062792D01*
X143787117Y-102062792D01*
X143787118Y-102062793D01*
X143915301Y-102107646D01*
X143945725Y-102110499D01*
X143945727Y-102110500D01*
X143945734Y-102110500D01*
X145704273Y-102110500D01*
X145704273Y-102110499D01*
X145734699Y-102107646D01*
X145862882Y-102062793D01*
X145972150Y-101982150D01*
X146052793Y-101872882D01*
X146092292Y-101760000D01*
X148302704Y-101760000D01*
X148302899Y-101762486D01*
X148302901Y-101762493D01*
X148348719Y-101920200D01*
X148348719Y-101920201D01*
X148432314Y-102061552D01*
X148548447Y-102177685D01*
X148689799Y-102261280D01*
X148847510Y-102307100D01*
X148884363Y-102310000D01*
X149524999Y-102310000D01*
X149525000Y-102309999D01*
X149525000Y-101760001D01*
X150025000Y-101760001D01*
X150025000Y-102309999D01*
X150025001Y-102310000D01*
X150665637Y-102310000D01*
X150702489Y-102307100D01*
X150860200Y-102261280D01*
X150860201Y-102261280D01*
X151001552Y-102177685D01*
X151117685Y-102061552D01*
X151201280Y-101920201D01*
X151201280Y-101920200D01*
X151247098Y-101762493D01*
X151247100Y-101762486D01*
X151247296Y-101760000D01*
X150025001Y-101760000D01*
X150025000Y-101760001D01*
X149525000Y-101760001D01*
X149524999Y-101760000D01*
X148302704Y-101760000D01*
X146092292Y-101760000D01*
X146097646Y-101744699D01*
X146100500Y-101714266D01*
X146100500Y-101305734D01*
X146100500Y-101305727D01*
X146100499Y-101305725D01*
X146097646Y-101275305D01*
X146097646Y-101275301D01*
X146052793Y-101147118D01*
X146017870Y-101099799D01*
X145972154Y-101037855D01*
X145972152Y-101037853D01*
X145972150Y-101037850D01*
X145972146Y-101037847D01*
X145972144Y-101037845D01*
X145859425Y-100954655D01*
X145823832Y-100904888D01*
X145824290Y-100843704D01*
X145859425Y-100795345D01*
X145962779Y-100719066D01*
X145972150Y-100712150D01*
X146052793Y-100602882D01*
X146097646Y-100474699D01*
X146100499Y-100444273D01*
X146100500Y-100444273D01*
X146100500Y-100035727D01*
X146100499Y-100035725D01*
X146097646Y-100005305D01*
X146097646Y-100005301D01*
X146052793Y-99877118D01*
X146016754Y-99828287D01*
X145997414Y-99770240D01*
X146015886Y-99711909D01*
X146065115Y-99675577D01*
X146096411Y-99670500D01*
X148503589Y-99670500D01*
X148561780Y-99689407D01*
X148597744Y-99738907D01*
X148597744Y-99800093D01*
X148583245Y-99828288D01*
X148547206Y-99877118D01*
X148502355Y-100005296D01*
X148502353Y-100005305D01*
X148499500Y-100035725D01*
X148499500Y-100444274D01*
X148502353Y-100474694D01*
X148502355Y-100474703D01*
X148547207Y-100602883D01*
X148605505Y-100681874D01*
X148624847Y-100739922D01*
X148606376Y-100798252D01*
X148576245Y-100825875D01*
X148548447Y-100842314D01*
X148432314Y-100958447D01*
X148348719Y-101099798D01*
X148348719Y-101099799D01*
X148302901Y-101257506D01*
X148302899Y-101257513D01*
X148302704Y-101260000D01*
X151247295Y-101260000D01*
X151247100Y-101257513D01*
X151247098Y-101257506D01*
X151201280Y-101099799D01*
X151201280Y-101099798D01*
X151117685Y-100958447D01*
X151001552Y-100842314D01*
X150973755Y-100825875D01*
X150960560Y-100810908D01*
X150944358Y-100799264D01*
X150940796Y-100788491D01*
X150933292Y-100779980D01*
X150931414Y-100760115D01*
X150925151Y-100741172D01*
X150928618Y-100730541D01*
X150927534Y-100719066D01*
X150943759Y-100682884D01*
X150944124Y-100682375D01*
X151002793Y-100602882D01*
X151004250Y-100598717D01*
X151011020Y-100589298D01*
X151030469Y-100575013D01*
X151047779Y-100558210D01*
X151054698Y-100557218D01*
X151060334Y-100553080D01*
X151084462Y-100552955D01*
X151108346Y-100549535D01*
X151114639Y-100552800D01*
X151121519Y-100552765D01*
X151139560Y-100565732D01*
X151161415Y-100577072D01*
X153645504Y-103061161D01*
X153673281Y-103115678D01*
X153674500Y-103131165D01*
X153674500Y-105443994D01*
X153679249Y-105467867D01*
X153672058Y-105528628D01*
X153652155Y-105557186D01*
X150613839Y-108595504D01*
X150559322Y-108623281D01*
X150543835Y-108624500D01*
X148729500Y-108624500D01*
X148671309Y-108605593D01*
X148635345Y-108556093D01*
X148630500Y-108525500D01*
X148630500Y-107959175D01*
X148630500Y-107959174D01*
X148620090Y-107880103D01*
X148586015Y-107752936D01*
X148577907Y-107733361D01*
X148555498Y-107679261D01*
X148555496Y-107679257D01*
X148489670Y-107565243D01*
X148464083Y-107531898D01*
X148441125Y-107501978D01*
X148441123Y-107501976D01*
X148441120Y-107501972D01*
X148348028Y-107408880D01*
X148348023Y-107408876D01*
X148348021Y-107408874D01*
X148284760Y-107360332D01*
X148170738Y-107294501D01*
X148097063Y-107263984D01*
X148027576Y-107245365D01*
X147969897Y-107229910D01*
X147969892Y-107229909D01*
X147969891Y-107229909D01*
X147890827Y-107219500D01*
X147890826Y-107219500D01*
X147259174Y-107219500D01*
X147259172Y-107219500D01*
X147180108Y-107229909D01*
X147180105Y-107229909D01*
X147180103Y-107229910D01*
X147147856Y-107238550D01*
X147052936Y-107263984D01*
X146979261Y-107294501D01*
X146865239Y-107360332D01*
X146801978Y-107408874D01*
X146708874Y-107501978D01*
X146660332Y-107565239D01*
X146594501Y-107679261D01*
X146563984Y-107752936D01*
X146555716Y-107783795D01*
X146544373Y-107826125D01*
X146511051Y-107877437D01*
X146453930Y-107899364D01*
X146448748Y-107899500D01*
X138349500Y-107899500D01*
X138291309Y-107880593D01*
X138255345Y-107831093D01*
X138250500Y-107800500D01*
X138250500Y-107531899D01*
X138250499Y-107531893D01*
X138242760Y-107467447D01*
X138239877Y-107443436D01*
X138184361Y-107302658D01*
X138092922Y-107182078D01*
X137972342Y-107090639D01*
X137972341Y-107090638D01*
X137972339Y-107090637D01*
X137831565Y-107035123D01*
X137743106Y-107024500D01*
X137743102Y-107024500D01*
X136456898Y-107024500D01*
X136456893Y-107024500D01*
X136368434Y-107035123D01*
X136227660Y-107090637D01*
X136227656Y-107090640D01*
X136107081Y-107182075D01*
X136107075Y-107182081D01*
X136015640Y-107302656D01*
X136015637Y-107302660D01*
X135960123Y-107443433D01*
X135957387Y-107466219D01*
X135931675Y-107521739D01*
X135878240Y-107551544D01*
X135817491Y-107544248D01*
X135772633Y-107502638D01*
X135770883Y-107499358D01*
X135754624Y-107467448D01*
X135629722Y-107295535D01*
X135479464Y-107145277D01*
X135307552Y-107020375D01*
X135118215Y-106923904D01*
X134916120Y-106858240D01*
X134850000Y-106847767D01*
X134850000Y-107895854D01*
X134783343Y-107857370D01*
X134662535Y-107825000D01*
X134537465Y-107825000D01*
X134416657Y-107857370D01*
X134350000Y-107895854D01*
X134350000Y-106847768D01*
X134349999Y-106847767D01*
X134283880Y-106858240D01*
X134283878Y-106858240D01*
X134081784Y-106923904D01*
X133892447Y-107020375D01*
X133720535Y-107145277D01*
X133570277Y-107295535D01*
X133445375Y-107467447D01*
X133348902Y-107656788D01*
X133336430Y-107695174D01*
X133300466Y-107744673D01*
X133242275Y-107763580D01*
X133184084Y-107744672D01*
X133154066Y-107709525D01*
X133083997Y-107572008D01*
X133079082Y-107565243D01*
X132977553Y-107425499D01*
X132849501Y-107297447D01*
X132702994Y-107191004D01*
X132702993Y-107191003D01*
X132702991Y-107191002D01*
X132541637Y-107108788D01*
X132369406Y-107052828D01*
X132190549Y-107024500D01*
X132190546Y-107024500D01*
X132009454Y-107024500D01*
X132009451Y-107024500D01*
X131830593Y-107052828D01*
X131658359Y-107108789D01*
X131658358Y-107108789D01*
X131601099Y-107137964D01*
X131540667Y-107147535D01*
X131486151Y-107119758D01*
X127129496Y-102763103D01*
X127101719Y-102708586D01*
X127100500Y-102693099D01*
X127100500Y-97297684D01*
X131252700Y-97297684D01*
X131252700Y-97502315D01*
X131284708Y-97704412D01*
X131347943Y-97899027D01*
X131440839Y-98081348D01*
X131440843Y-98081353D01*
X131473223Y-98125920D01*
X131473224Y-98125920D01*
X132152700Y-97446444D01*
X132152700Y-97452661D01*
X132179959Y-97554394D01*
X132232620Y-97645606D01*
X132307094Y-97720080D01*
X132398306Y-97772741D01*
X132500039Y-97800000D01*
X132506253Y-97800000D01*
X131826778Y-98479475D01*
X131871347Y-98511858D01*
X132053672Y-98604756D01*
X132248287Y-98667991D01*
X132450385Y-98700000D01*
X132655015Y-98700000D01*
X132857112Y-98667991D01*
X133051727Y-98604756D01*
X133234042Y-98511863D01*
X133234050Y-98511858D01*
X133278620Y-98479475D01*
X132599145Y-97800000D01*
X132605361Y-97800000D01*
X132707094Y-97772741D01*
X132798306Y-97720080D01*
X132872780Y-97645606D01*
X132925441Y-97554394D01*
X132952700Y-97452661D01*
X132952700Y-97446445D01*
X133632175Y-98125920D01*
X133664558Y-98081350D01*
X133664563Y-98081342D01*
X133757456Y-97899027D01*
X133820691Y-97704412D01*
X133852700Y-97502315D01*
X133852700Y-97297684D01*
X133820691Y-97095587D01*
X133757455Y-96900969D01*
X133730918Y-96848885D01*
X133730917Y-96848884D01*
X133709522Y-96806893D01*
X134952200Y-96806893D01*
X134952200Y-97993106D01*
X134962823Y-98081565D01*
X135018337Y-98222339D01*
X135018338Y-98222341D01*
X135018339Y-98222342D01*
X135109778Y-98342922D01*
X135230358Y-98434361D01*
X135230359Y-98434361D01*
X135230360Y-98434362D01*
X135300747Y-98462119D01*
X135371136Y-98489877D01*
X135459598Y-98500500D01*
X135459600Y-98500500D01*
X136645800Y-98500500D01*
X136645802Y-98500500D01*
X136734264Y-98489877D01*
X136875042Y-98434361D01*
X136995622Y-98342922D01*
X137087061Y-98222342D01*
X137142577Y-98081564D01*
X137153200Y-97993102D01*
X137153200Y-96806898D01*
X137142577Y-96718436D01*
X137098054Y-96605533D01*
X137087062Y-96577660D01*
X137087061Y-96577659D01*
X137087061Y-96577658D01*
X136995622Y-96457078D01*
X136875042Y-96365639D01*
X136875041Y-96365638D01*
X136875039Y-96365637D01*
X136734265Y-96310123D01*
X136645806Y-96299500D01*
X136645802Y-96299500D01*
X135459598Y-96299500D01*
X135459593Y-96299500D01*
X135371134Y-96310123D01*
X135230360Y-96365637D01*
X135230356Y-96365640D01*
X135109781Y-96457075D01*
X135109775Y-96457081D01*
X135018340Y-96577656D01*
X135018337Y-96577660D01*
X134962823Y-96718434D01*
X134952200Y-96806893D01*
X133709522Y-96806893D01*
X133664558Y-96718647D01*
X133632175Y-96674078D01*
X132952700Y-97353553D01*
X132952700Y-97347339D01*
X132925441Y-97245606D01*
X132872780Y-97154394D01*
X132798306Y-97079920D01*
X132707094Y-97027259D01*
X132605361Y-97000000D01*
X132599145Y-97000000D01*
X133278620Y-96320524D01*
X133278620Y-96320523D01*
X133234053Y-96288143D01*
X133234048Y-96288139D01*
X133051727Y-96195243D01*
X132857112Y-96132008D01*
X132655015Y-96100000D01*
X132450385Y-96100000D01*
X132248287Y-96132008D01*
X132053672Y-96195243D01*
X131871351Y-96288139D01*
X131871347Y-96288141D01*
X131826778Y-96320523D01*
X132506255Y-97000000D01*
X132500039Y-97000000D01*
X132398306Y-97027259D01*
X132307094Y-97079920D01*
X132232620Y-97154394D01*
X132179959Y-97245606D01*
X132152700Y-97347339D01*
X132152700Y-97353555D01*
X131473223Y-96674078D01*
X131440841Y-96718647D01*
X131440839Y-96718651D01*
X131347943Y-96900972D01*
X131284708Y-97095587D01*
X131252700Y-97297684D01*
X127100500Y-97297684D01*
X127100500Y-89747507D01*
X127119407Y-89689316D01*
X127168907Y-89653352D01*
X127230093Y-89653352D01*
X127279593Y-89689316D01*
G37*
G04 #@! TD.AperFunction*
G04 #@! TA.AperFunction,Conductor*
G36*
X170303522Y-85400752D02*
G01*
X170328505Y-85402538D01*
X170506345Y-85415258D01*
X170520308Y-85417265D01*
X170715549Y-85459737D01*
X170729089Y-85463713D01*
X170916288Y-85533534D01*
X170929122Y-85539395D01*
X171104479Y-85635148D01*
X171116358Y-85642782D01*
X171276292Y-85762507D01*
X171286968Y-85771757D01*
X171428242Y-85913031D01*
X171437492Y-85923707D01*
X171557217Y-86083641D01*
X171564853Y-86095523D01*
X171660600Y-86270869D01*
X171666468Y-86283718D01*
X171736284Y-86470904D01*
X171740264Y-86484457D01*
X171782732Y-86679681D01*
X171784742Y-86693662D01*
X171799248Y-86896476D01*
X171799500Y-86903539D01*
X171799500Y-118626460D01*
X171799248Y-118633523D01*
X171784742Y-118836337D01*
X171782732Y-118850318D01*
X171740264Y-119045542D01*
X171736284Y-119059095D01*
X171666468Y-119246281D01*
X171660600Y-119259130D01*
X171564853Y-119434476D01*
X171557217Y-119446358D01*
X171437492Y-119606292D01*
X171428242Y-119616968D01*
X171286968Y-119758242D01*
X171276292Y-119767492D01*
X171116358Y-119887217D01*
X171104476Y-119894853D01*
X170929130Y-119990600D01*
X170916281Y-119996468D01*
X170729095Y-120066284D01*
X170715542Y-120070264D01*
X170520318Y-120112732D01*
X170506337Y-120114742D01*
X170303523Y-120129248D01*
X170296460Y-120129500D01*
X124403540Y-120129500D01*
X124396477Y-120129248D01*
X124193662Y-120114742D01*
X124179681Y-120112732D01*
X123984457Y-120070264D01*
X123970904Y-120066284D01*
X123783718Y-119996468D01*
X123770869Y-119990600D01*
X123595523Y-119894853D01*
X123583641Y-119887217D01*
X123423707Y-119767492D01*
X123413031Y-119758242D01*
X123271757Y-119616968D01*
X123262507Y-119606292D01*
X123142782Y-119446358D01*
X123135146Y-119434476D01*
X123102815Y-119375266D01*
X123039395Y-119259122D01*
X123033534Y-119246288D01*
X122963713Y-119059089D01*
X122959737Y-119045549D01*
X122917265Y-118850308D01*
X122915258Y-118836345D01*
X122900752Y-118633522D01*
X122900500Y-118626460D01*
X122900500Y-118520943D01*
X124199500Y-118520943D01*
X124199500Y-118679057D01*
X124240423Y-118831784D01*
X124319480Y-118968716D01*
X124431284Y-119080520D01*
X124568216Y-119159577D01*
X124720943Y-119200500D01*
X124720945Y-119200500D01*
X124879055Y-119200500D01*
X124879057Y-119200500D01*
X125031784Y-119159577D01*
X125168716Y-119080520D01*
X125280520Y-118968716D01*
X125359577Y-118831784D01*
X125400500Y-118679057D01*
X125400500Y-118520943D01*
X125359577Y-118368216D01*
X125332284Y-118320943D01*
X169499500Y-118320943D01*
X169499500Y-118479057D01*
X169540423Y-118631784D01*
X169619480Y-118768716D01*
X169731284Y-118880520D01*
X169868216Y-118959577D01*
X170020943Y-119000500D01*
X170020945Y-119000500D01*
X170179055Y-119000500D01*
X170179057Y-119000500D01*
X170331784Y-118959577D01*
X170468716Y-118880520D01*
X170580520Y-118768716D01*
X170659577Y-118631784D01*
X170700500Y-118479057D01*
X170700500Y-118320943D01*
X170659577Y-118168216D01*
X170580520Y-118031284D01*
X170468716Y-117919480D01*
X170331784Y-117840423D01*
X170179057Y-117799500D01*
X170020943Y-117799500D01*
X169868216Y-117840423D01*
X169731284Y-117919480D01*
X169619480Y-118031284D01*
X169540423Y-118168216D01*
X169499500Y-118320943D01*
X125332284Y-118320943D01*
X125280520Y-118231284D01*
X125168716Y-118119480D01*
X125031784Y-118040423D01*
X124879057Y-117999500D01*
X124720943Y-117999500D01*
X124568216Y-118040423D01*
X124431284Y-118119480D01*
X124319480Y-118231284D01*
X124240423Y-118368216D01*
X124199500Y-118520943D01*
X122900500Y-118520943D01*
X122900500Y-88747273D01*
X126299500Y-88747273D01*
X126299500Y-102847273D01*
X126299500Y-102952727D01*
X126323570Y-103042559D01*
X126326794Y-103054592D01*
X126379516Y-103145908D01*
X126379517Y-103145909D01*
X126379518Y-103145910D01*
X126379520Y-103145913D01*
X128677601Y-105443994D01*
X130974504Y-107740897D01*
X131002281Y-107795414D01*
X130998655Y-107841493D01*
X130977828Y-107905593D01*
X130949500Y-108084450D01*
X130949500Y-108515549D01*
X130977828Y-108694406D01*
X131033788Y-108866637D01*
X131115826Y-109027646D01*
X131116004Y-109027994D01*
X131222447Y-109174501D01*
X131350499Y-109302553D01*
X131497006Y-109408996D01*
X131658361Y-109491211D01*
X131830591Y-109547171D01*
X131902136Y-109558502D01*
X132009451Y-109575500D01*
X132009454Y-109575500D01*
X132190549Y-109575500D01*
X132279977Y-109561335D01*
X132369409Y-109547171D01*
X132541639Y-109491211D01*
X132702994Y-109408996D01*
X132849501Y-109302553D01*
X132977553Y-109174501D01*
X133083996Y-109027994D01*
X133154066Y-108890473D01*
X133197331Y-108847209D01*
X133257763Y-108837638D01*
X133312280Y-108865415D01*
X133336430Y-108904826D01*
X133348901Y-108943209D01*
X133445375Y-109132552D01*
X133570277Y-109304464D01*
X133720535Y-109454722D01*
X133892447Y-109579624D01*
X134081784Y-109676095D01*
X134283877Y-109741758D01*
X134349999Y-109752231D01*
X134350000Y-109752230D01*
X134350000Y-108704145D01*
X134416657Y-108742630D01*
X134537465Y-108775000D01*
X134662535Y-108775000D01*
X134783343Y-108742630D01*
X134850000Y-108704145D01*
X134850000Y-109752231D01*
X134916122Y-109741758D01*
X135118215Y-109676095D01*
X135307552Y-109579624D01*
X135479464Y-109454722D01*
X135629722Y-109304464D01*
X135754625Y-109132550D01*
X135754625Y-109132549D01*
X135770883Y-109100642D01*
X135814147Y-109057377D01*
X135874579Y-109047805D01*
X135929096Y-109075582D01*
X135956874Y-109130098D01*
X135957387Y-109133781D01*
X135960123Y-109156566D01*
X136015637Y-109297339D01*
X136015638Y-109297341D01*
X136015639Y-109297342D01*
X136107078Y-109417922D01*
X136227658Y-109509361D01*
X136227659Y-109509361D01*
X136227660Y-109509362D01*
X136298047Y-109537119D01*
X136368436Y-109564877D01*
X136456898Y-109575500D01*
X136456900Y-109575500D01*
X137743100Y-109575500D01*
X137743102Y-109575500D01*
X137831564Y-109564877D01*
X137972342Y-109509361D01*
X138092922Y-109417922D01*
X138184361Y-109297342D01*
X138239877Y-109156564D01*
X138250500Y-109068102D01*
X138250500Y-108799500D01*
X138269407Y-108741309D01*
X138318907Y-108705345D01*
X138349500Y-108700500D01*
X146423552Y-108700500D01*
X146481743Y-108719407D01*
X146517707Y-108768907D01*
X146520867Y-108817689D01*
X146519500Y-108825002D01*
X146519500Y-109390827D01*
X146523067Y-109417924D01*
X146529910Y-109469897D01*
X146539173Y-109504466D01*
X146563984Y-109597063D01*
X146594501Y-109670738D01*
X146660332Y-109784760D01*
X146708874Y-109848021D01*
X146708876Y-109848023D01*
X146708880Y-109848028D01*
X146801972Y-109941120D01*
X146801976Y-109941123D01*
X146801978Y-109941125D01*
X146843372Y-109972888D01*
X146865243Y-109989670D01*
X146979257Y-110055496D01*
X146979258Y-110055496D01*
X146979261Y-110055498D01*
X147052936Y-110086015D01*
X147180103Y-110120090D01*
X147259174Y-110130500D01*
X147259175Y-110130500D01*
X147890825Y-110130500D01*
X147890826Y-110130500D01*
X147969897Y-110120090D01*
X148097064Y-110086015D01*
X148170743Y-110055496D01*
X148199726Y-110038763D01*
X148249225Y-110025500D01*
X150943993Y-110025500D01*
X150943994Y-110025500D01*
X151079328Y-109998580D01*
X151206811Y-109945775D01*
X151321543Y-109869114D01*
X154661160Y-106529495D01*
X154715677Y-106501719D01*
X154731164Y-106500500D01*
X155831810Y-106500500D01*
X155890001Y-106519407D01*
X155925965Y-106568907D01*
X155925965Y-106630093D01*
X155893536Y-106676901D01*
X155788899Y-106760345D01*
X156538282Y-107509728D01*
X156420534Y-107595278D01*
X156270278Y-107745534D01*
X156184728Y-107863282D01*
X155435345Y-107113899D01*
X155339573Y-107233993D01*
X155339571Y-107233996D01*
X155196154Y-107462243D01*
X155079193Y-107705115D01*
X154990164Y-107959546D01*
X154930180Y-108222353D01*
X154900000Y-108490217D01*
X154900000Y-108759782D01*
X154930180Y-109027646D01*
X154990164Y-109290453D01*
X155079193Y-109544884D01*
X155196154Y-109787756D01*
X155339569Y-110016000D01*
X155435345Y-110136099D01*
X156184727Y-109386716D01*
X156270278Y-109504466D01*
X156420534Y-109654722D01*
X156538281Y-109740270D01*
X155788899Y-110489653D01*
X155908999Y-110585430D01*
X156137243Y-110728845D01*
X156380115Y-110845806D01*
X156634546Y-110934835D01*
X156897353Y-110994819D01*
X157165217Y-111024999D01*
X157165220Y-111025000D01*
X157434780Y-111025000D01*
X157434782Y-111024999D01*
X157702646Y-110994819D01*
X157965453Y-110934835D01*
X158219884Y-110845806D01*
X158462756Y-110728845D01*
X158691000Y-110585430D01*
X158811099Y-110489653D01*
X158061717Y-109740271D01*
X158179466Y-109654722D01*
X158329722Y-109504466D01*
X158415271Y-109386717D01*
X159164653Y-110136099D01*
X159260430Y-110016000D01*
X159403845Y-109787756D01*
X159520806Y-109544884D01*
X159609835Y-109290453D01*
X159669819Y-109027646D01*
X159699999Y-108759782D01*
X159700000Y-108759780D01*
X159700000Y-108490219D01*
X159699999Y-108490217D01*
X159669819Y-108222353D01*
X159609835Y-107959546D01*
X159520806Y-107705115D01*
X159403845Y-107462243D01*
X159260430Y-107233999D01*
X159164653Y-107113899D01*
X158415270Y-107863281D01*
X158329722Y-107745534D01*
X158179466Y-107595278D01*
X158061716Y-107509727D01*
X158811099Y-106760345D01*
X158706464Y-106676901D01*
X158672758Y-106625837D01*
X158675503Y-106564714D01*
X158713652Y-106516877D01*
X158768190Y-106500500D01*
X158968835Y-106500500D01*
X159027026Y-106519407D01*
X159038839Y-106529496D01*
X160070504Y-107561161D01*
X160098281Y-107615678D01*
X160099500Y-107631165D01*
X160099500Y-109817102D01*
X160114844Y-109972891D01*
X160175485Y-110172799D01*
X160175487Y-110172804D01*
X160273952Y-110357021D01*
X160273958Y-110357030D01*
X160273960Y-110357033D01*
X160329222Y-110424370D01*
X160406480Y-110518510D01*
X160406489Y-110518519D01*
X160481800Y-110580324D01*
X160567967Y-110651040D01*
X160567971Y-110651042D01*
X160567978Y-110651047D01*
X160752195Y-110749512D01*
X160752201Y-110749515D01*
X160891465Y-110791759D01*
X160952105Y-110810155D01*
X160952111Y-110810156D01*
X161001345Y-110815004D01*
X161107905Y-110825500D01*
X163492094Y-110825499D01*
X163492102Y-110825499D01*
X163605403Y-110814339D01*
X163647894Y-110810155D01*
X163847799Y-110749515D01*
X163913850Y-110714209D01*
X164032021Y-110651047D01*
X164032024Y-110651044D01*
X164032033Y-110651040D01*
X164193515Y-110518515D01*
X164326040Y-110357033D01*
X164326044Y-110357024D01*
X164326047Y-110357021D01*
X164424512Y-110172804D01*
X164424515Y-110172799D01*
X164485155Y-109972894D01*
X164488285Y-109941120D01*
X164489063Y-109933207D01*
X164500500Y-109817095D01*
X164500499Y-107432906D01*
X164500499Y-107432897D01*
X164485155Y-107277108D01*
X164485155Y-107277106D01*
X164424515Y-107077201D01*
X164411488Y-107052829D01*
X164326047Y-106892978D01*
X164326042Y-106892971D01*
X164326040Y-106892967D01*
X164217200Y-106760345D01*
X164193519Y-106731489D01*
X164193510Y-106731480D01*
X164099370Y-106654222D01*
X164032033Y-106598960D01*
X164032030Y-106598958D01*
X164032021Y-106598952D01*
X163847804Y-106500487D01*
X163847799Y-106500485D01*
X163647894Y-106439844D01*
X163647888Y-106439843D01*
X163511201Y-106426381D01*
X163492095Y-106424500D01*
X163492093Y-106424500D01*
X161107896Y-106424500D01*
X160979035Y-106437191D01*
X160919272Y-106424078D01*
X160899329Y-106408672D01*
X159746543Y-105255886D01*
X159631811Y-105179225D01*
X159631810Y-105179224D01*
X159631808Y-105179223D01*
X159504328Y-105126420D01*
X159368996Y-105099500D01*
X159368994Y-105099500D01*
X159368993Y-105099500D01*
X155174500Y-105099500D01*
X155116309Y-105080593D01*
X155080345Y-105031093D01*
X155075500Y-105000500D01*
X155075500Y-102731008D01*
X155075499Y-102731004D01*
X155071040Y-102708586D01*
X155048580Y-102595672D01*
X154995775Y-102468189D01*
X154919114Y-102353457D01*
X150991543Y-98425886D01*
X150977726Y-98416654D01*
X150941035Y-98392138D01*
X150891852Y-98359275D01*
X150853973Y-98311226D01*
X150851571Y-98250088D01*
X150885563Y-98199214D01*
X150888026Y-98197334D01*
X150922150Y-98172150D01*
X151002793Y-98062882D01*
X151047646Y-97934699D01*
X151050499Y-97904273D01*
X151050500Y-97904273D01*
X151050500Y-97495727D01*
X151050499Y-97495725D01*
X151047646Y-97465305D01*
X151047646Y-97465301D01*
X151002793Y-97337118D01*
X150935254Y-97245606D01*
X150922154Y-97227855D01*
X150922152Y-97227853D01*
X150922150Y-97227850D01*
X150922146Y-97227847D01*
X150922144Y-97227845D01*
X150809425Y-97144655D01*
X150773832Y-97094888D01*
X150774290Y-97033704D01*
X150809425Y-96985345D01*
X150905462Y-96914466D01*
X150922150Y-96902150D01*
X151002793Y-96792882D01*
X151047646Y-96664699D01*
X151050499Y-96634273D01*
X151050500Y-96634273D01*
X151050500Y-96605533D01*
X157239500Y-96605533D01*
X157239500Y-96914466D01*
X157274088Y-97221450D01*
X157342832Y-97522637D01*
X157444863Y-97814225D01*
X157578905Y-98092566D01*
X157727516Y-98329079D01*
X157743265Y-98354143D01*
X157935880Y-98595674D01*
X158154326Y-98814120D01*
X158395857Y-99006735D01*
X158657435Y-99171095D01*
X158935771Y-99305135D01*
X159227364Y-99407168D01*
X159528548Y-99475911D01*
X159835535Y-99510500D01*
X159835536Y-99510500D01*
X160144464Y-99510500D01*
X160144465Y-99510500D01*
X160451452Y-99475911D01*
X160752636Y-99407168D01*
X161044229Y-99305135D01*
X161322565Y-99171095D01*
X161584143Y-99006735D01*
X161825674Y-98814120D01*
X162044120Y-98595674D01*
X162236735Y-98354143D01*
X162401095Y-98092565D01*
X162535135Y-97814229D01*
X162637168Y-97522636D01*
X162705911Y-97221452D01*
X162740500Y-96914465D01*
X162740500Y-96605535D01*
X162705911Y-96298548D01*
X162637168Y-95997364D01*
X162535135Y-95705771D01*
X162401095Y-95427435D01*
X162361408Y-95364274D01*
X162324380Y-95305344D01*
X162236735Y-95165857D01*
X162044120Y-94924326D01*
X161825674Y-94705880D01*
X161584143Y-94513265D01*
X161476049Y-94445345D01*
X161322566Y-94348905D01*
X161044225Y-94214863D01*
X160752637Y-94112832D01*
X160451450Y-94044088D01*
X160144466Y-94009500D01*
X160144465Y-94009500D01*
X159835535Y-94009500D01*
X159835533Y-94009500D01*
X159528549Y-94044088D01*
X159227362Y-94112832D01*
X158935774Y-94214863D01*
X158657433Y-94348905D01*
X158395856Y-94513265D01*
X158154327Y-94705879D01*
X157935879Y-94924327D01*
X157743265Y-95165856D01*
X157578905Y-95427433D01*
X157444863Y-95705774D01*
X157342832Y-95997362D01*
X157274088Y-96298549D01*
X157239500Y-96605533D01*
X151050500Y-96605533D01*
X151050500Y-96225727D01*
X151050499Y-96225725D01*
X151047646Y-96195301D01*
X151002793Y-96067118D01*
X150951312Y-95997364D01*
X150922154Y-95957855D01*
X150922152Y-95957853D01*
X150922150Y-95957850D01*
X150922146Y-95957847D01*
X150922144Y-95957845D01*
X150809425Y-95874655D01*
X150773832Y-95824888D01*
X150774290Y-95763704D01*
X150809425Y-95715345D01*
X150876630Y-95665744D01*
X150922150Y-95632150D01*
X151002793Y-95522882D01*
X151047646Y-95394699D01*
X151050499Y-95364273D01*
X151050500Y-95364273D01*
X151050500Y-94955727D01*
X151050499Y-94955725D01*
X151047646Y-94925305D01*
X151047646Y-94925301D01*
X151002793Y-94797118D01*
X150944495Y-94718126D01*
X150925153Y-94660078D01*
X150943624Y-94601748D01*
X150973755Y-94574125D01*
X151001552Y-94557685D01*
X151117685Y-94441552D01*
X151201280Y-94300201D01*
X151201280Y-94300200D01*
X151247098Y-94142493D01*
X151247100Y-94142486D01*
X151247296Y-94140000D01*
X148280681Y-94140000D01*
X148272938Y-94144335D01*
X148212178Y-94137136D01*
X148183632Y-94117239D01*
X147811801Y-93745408D01*
X147706393Y-93640000D01*
X148302704Y-93640000D01*
X149524999Y-93640000D01*
X149525000Y-93639999D01*
X149525000Y-93090001D01*
X150025000Y-93090001D01*
X150025000Y-93639999D01*
X150025001Y-93640000D01*
X151247295Y-93640000D01*
X151247100Y-93637513D01*
X151247098Y-93637506D01*
X151201280Y-93479799D01*
X151201280Y-93479798D01*
X151117685Y-93338447D01*
X151001552Y-93222314D01*
X150860200Y-93138719D01*
X150702489Y-93092899D01*
X150665637Y-93090000D01*
X150025001Y-93090000D01*
X150025000Y-93090001D01*
X149525000Y-93090001D01*
X149524999Y-93090000D01*
X148884363Y-93090000D01*
X148847510Y-93092899D01*
X148689799Y-93138719D01*
X148689798Y-93138719D01*
X148548447Y-93222314D01*
X148432314Y-93338447D01*
X148348719Y-93479798D01*
X148348719Y-93479799D01*
X148302901Y-93637506D01*
X148302899Y-93637513D01*
X148302704Y-93640000D01*
X147706393Y-93640000D01*
X144939598Y-90873205D01*
X142045913Y-87979520D01*
X142045910Y-87979518D01*
X142045909Y-87979517D01*
X142045908Y-87979516D01*
X141954591Y-87926794D01*
X141954593Y-87926794D01*
X141915070Y-87916204D01*
X141852727Y-87899500D01*
X127252727Y-87899500D01*
X127147273Y-87899500D01*
X127057440Y-87923570D01*
X127045408Y-87926794D01*
X126999750Y-87953156D01*
X126970800Y-87969870D01*
X126954086Y-87979520D01*
X126879519Y-88054086D01*
X126879520Y-88054087D01*
X126379516Y-88554091D01*
X126326793Y-88645411D01*
X126326792Y-88645411D01*
X126326793Y-88645412D01*
X126326793Y-88645413D01*
X126299500Y-88747273D01*
X122900500Y-88747273D01*
X122900500Y-87120943D01*
X169499500Y-87120943D01*
X169499500Y-87279057D01*
X169540423Y-87431784D01*
X169619480Y-87568716D01*
X169731284Y-87680520D01*
X169868216Y-87759577D01*
X170020943Y-87800500D01*
X170020945Y-87800500D01*
X170179055Y-87800500D01*
X170179057Y-87800500D01*
X170331784Y-87759577D01*
X170468716Y-87680520D01*
X170580520Y-87568716D01*
X170659577Y-87431784D01*
X170700500Y-87279057D01*
X170700500Y-87120943D01*
X170659577Y-86968216D01*
X170580520Y-86831284D01*
X170468716Y-86719480D01*
X170331784Y-86640423D01*
X170179057Y-86599500D01*
X170020943Y-86599500D01*
X169868216Y-86640423D01*
X169731284Y-86719480D01*
X169619480Y-86831284D01*
X169540423Y-86968216D01*
X169499500Y-87120943D01*
X122900500Y-87120943D01*
X122900500Y-86903539D01*
X122900752Y-86896477D01*
X122905415Y-86831284D01*
X122915258Y-86693652D01*
X122917265Y-86679693D01*
X122959737Y-86484447D01*
X122963711Y-86470914D01*
X123033536Y-86283705D01*
X123039392Y-86270882D01*
X123135151Y-86095513D01*
X123142775Y-86083650D01*
X123262512Y-85923700D01*
X123271750Y-85913038D01*
X123413038Y-85771750D01*
X123423700Y-85762512D01*
X123583650Y-85642775D01*
X123595513Y-85635151D01*
X123770882Y-85539392D01*
X123783705Y-85533536D01*
X123970914Y-85463711D01*
X123984447Y-85459737D01*
X124179693Y-85417265D01*
X124193652Y-85415258D01*
X124373568Y-85402390D01*
X124396478Y-85400752D01*
X124403540Y-85400500D01*
X124465892Y-85400500D01*
X170234108Y-85400500D01*
X170296460Y-85400500D01*
X170303522Y-85400752D01*
G37*
G04 #@! TD.AperFunction*
G04 #@! TD*
M02*
